<svg xmlns="http://www.w3.org/2000/svg" xmlns:xlink="http://www.w3.org/1999/xlink" width="118" height="118" viewBox="0 0 118 118">
  <defs>
    <filter id="Elipse_12115" x="0" y="0" width="118" height="118" filterUnits="userSpaceOnUse">
      <feOffset dy="3" input="SourceAlpha"/>
      <feGaussianBlur stdDeviation="3" result="blur"/>
      <feFlood flood-opacity="0.161"/>
      <feComposite operator="in" in2="blur"/>
      <feComposite in="SourceGraphic"/>
    </filter>
  </defs>
  <g id="Grupo_1190696" data-name="Grupo 1190696" transform="translate(-794.781 -2538)">
    <g id="Grupo_1181947" data-name="Grupo 1181947" transform="translate(-5 -5)">
      <g transform="matrix(1, 0, 0, 1, 799.78, 2543)" filter="url(#Elipse_12115)">
        <g id="Elipse_12115-2" data-name="Elipse 12115" transform="translate(9 6)" fill="#fbe4a3" stroke="#f6bc1c" stroke-width="2">
          <circle cx="50" cy="50" r="50" stroke="none"/>
          <circle cx="50" cy="50" r="49" fill="none"/>
        </g>
      </g>
    </g>
    <g id="busy_5836018" transform="translate(823.442 2563.669)">
      <g id="Grupo_1191067" data-name="Grupo 1191067" transform="translate(1.189 1.189)">
        <g id="Grupo_1191058" data-name="Grupo 1191058">
          <path id="Trazado_1303733" data-name="Trazado 1303733" d="M68.507,39.253a29.111,29.111,0,0,1-4.352,15.359,7.234,7.234,0,0,0-9.51,9.522A29.256,29.256,0,1,1,68.507,39.253Z" transform="translate(-10 -10)" fill="#fff"/>
        </g>
        <g id="Grupo_1191059" data-name="Grupo 1191059" transform="translate(5.342 5.342)">
          <circle id="Elipse_12255" data-name="Elipse 12255" cx="23.911" cy="23.911" r="23.911" fill="#a0c8ff"/>
        </g>
        <g id="Grupo_1191060" data-name="Grupo 1191060" transform="translate(41.04 41.023)">
          <circle id="Elipse_12256" data-name="Elipse 12256" cx="7.231" cy="7.231" r="7.231" transform="translate(0 10.225) rotate(-45)" fill="#ff7d95"/>
        </g>
        <g id="Grupo_1191066" data-name="Grupo 1191066" transform="translate(20.869 14.777)">
          <g id="Grupo_1191063" data-name="Grupo 1191063">
            <g id="Grupo_1191061" data-name="Grupo 1191061">
              <path id="Trazado_1303734" data-name="Trazado 1303734" d="M202.263,134.262v6.253q0,.136-.007.273a5.03,5.03,0,0,1-2.262,3.932l-6.115,4.018-6.115-4.018a5.027,5.027,0,0,1-2.26-3.927c-.006-.092-.009-.184-.009-.278v-6.253Z" transform="translate(-185.494 -134.262)" fill="#fff"/>
            </g>
            <g id="Grupo_1191062" data-name="Grupo 1191062" transform="translate(0 14.477)">
              <path id="Trazado_1303735" data-name="Trazado 1303735" d="M193.88,270.479h8.384v-6.253a5.031,5.031,0,0,0-2.268-4.2L193.88,256l-6.116,4.018a5.031,5.031,0,0,0-2.268,4.2v6.253Z" transform="translate(-185.496 -256.003)" fill="#fff"/>
            </g>
          </g>
          <g id="Grupo_1191064" data-name="Grupo 1191064" transform="translate(0 22.262)">
            <path id="Trazado_1303736" data-name="Trazado 1303736" d="M191.179,322.252l-5.683,3.6v2.305h16.768v-2.305l-5.683-3.6A5.044,5.044,0,0,0,191.179,322.252Z" transform="translate(-185.496 -321.468)" fill="#e0a083"/>
          </g>
          <g id="Grupo_1191065" data-name="Grupo 1191065" transform="translate(0.009 6.526)">
            <path id="Trazado_1303737" data-name="Trazado 1303737" d="M202.319,189.139a5.03,5.03,0,0,1-2.262,3.932l-6.115,4.018-6.115-4.018a5.027,5.027,0,0,1-2.26-3.927C188.491,189.16,197.375,189.146,202.319,189.139Z" transform="translate(-185.566 -189.139)" fill="#e0a083"/>
          </g>
        </g>
      </g>
      <path id="Trazado_1303738" data-name="Trazado 1303738" d="M51.969,8.916A30.442,30.442,0,1,0,8.916,51.969a30.452,30.452,0,0,0,36.461,5,8.416,8.416,0,1,0,11.616-11.63A30.454,30.454,0,0,0,51.969,8.916Zm6.538,43.521A6.042,6.042,0,1,1,52.465,46.4a6.049,6.049,0,0,1,6.042,6.042ZM53.74,44.113a8.5,8.5,0,0,0-2.23-.041,25.051,25.051,0,0,0-1.578-29.431A25.229,25.229,0,0,0,35.9,5.942a1.189,1.189,0,1,0-.517,2.321A22.763,22.763,0,0,1,53.165,30.443a22.722,22.722,0,1,1-40.358-14.31A22.838,22.838,0,0,1,25.521,8.259a1.189,1.189,0,0,0-.515-2.322,25.1,25.1,0,0,0,5.436,49.606A24.953,24.953,0,0,0,44.1,51.493a8.46,8.46,0,0,0,.283,3.312,28.05,28.05,0,1,1,10.44-10.453,8.323,8.323,0,0,0-1.083-.238Z"/>
      <path id="Trazado_1303739" data-name="Trazado 1303739" d="M246.12,46.59a1.188,1.188,0,1,0,.643-1.553,1.2,1.2,0,0,0-.643,1.553Z" transform="translate(-216.775 -39.603)"/>
      <path id="Trazado_1303740" data-name="Trazado 1303740" d="M415.679,430.736h-5.212a1.189,1.189,0,0,0,0,2.378h5.212a1.189,1.189,0,1,0,0-2.378Z" transform="translate(-360.607 -379.515)"/>
      <path id="Trazado_1303741" data-name="Trazado 1303741" d="M154.524,124.266a1.189,1.189,0,1,0,0,2.378h1.446v5.064a6.288,6.288,0,0,0,2.805,5.2l4.6,3.025-4.6,3.024a6.2,6.2,0,0,0-2.8,5.2v5.064h-1.446a1.189,1.189,0,1,0,0,2.378h22.039a1.189,1.189,0,1,0,0-2.378h-1.446v-5.064a6.2,6.2,0,0,0-2.8-5.2l-4.6-3.024,4.6-3.024a6.278,6.278,0,0,0,2.806-5.2v-5.064h1.446a1.189,1.189,0,1,0,0-2.378Zm5.557,20.677,4.274-2.808v4.511a6.2,6.2,0,0,0-2.149.849l-3.858,2.445v-1.786A3.831,3.831,0,0,1,160.081,144.943Zm-1.732,8.275v-.462l5.131-3.252a3.872,3.872,0,0,1,4.128,0l5.131,3.252v.462Zm14.39-5.064v1.786l-3.858-2.445a6.2,6.2,0,0,0-2.148-.849v-4.51l4.273,2.807A3.831,3.831,0,0,1,172.738,148.154Zm-7.195-9.646-5.463-3.589a3.872,3.872,0,0,1-1.437-1.74c3.346.007,9.4,0,13.8-.008a3.866,3.866,0,0,1-1.44,1.747Zm7.2-7.715c-4.554.007-11.054.016-14.391.007v-4.156h14.391Z" transform="translate(-135.101 -109.489)"/>
    </g>
  </g>
</svg>
