<svg xmlns="http://www.w3.org/2000/svg" xmlns:xlink="http://www.w3.org/1999/xlink" width="83" height="83" viewBox="0 0 83 83">
  <defs>
    <filter id="Elipse_12115" x="0" y="0" width="83" height="83" filterUnits="userSpaceOnUse">
      <feOffset dy="3" input="SourceAlpha"/>
      <feGaussianBlur stdDeviation="3" result="blur"/>
      <feFlood flood-opacity="0.161"/>
      <feComposite operator="in" in2="blur"/>
      <feComposite in="SourceGraphic"/>
    </filter>
  </defs>
  <g id="Grupo_1189656" data-name="Grupo 1189656" transform="translate(-795.138 -1965.356)">
    <g id="Grupo_1187428" data-name="Grupo 1187428" transform="translate(803.781 1971)">
      <g id="Grupo_1181944" data-name="Grupo 1181944">
        <g id="Grupo_1181939" data-name="Grupo 1181939" transform="translate(0 0)">
          <g transform="matrix(1, 0, 0, 1, -8.64, -5.64)" filter="url(#Elipse_12115)">
            <g id="Elipse_12115-2" data-name="Elipse 12115" transform="translate(9 6)" fill="#d0d1dc" stroke="#1a1f53" stroke-width="2">
              <circle cx="32.5" cy="32.5" r="32.5" stroke="none"/>
              <circle cx="32.5" cy="32.5" r="31.5" fill="none"/>
            </g>
          </g>
        </g>
      </g>
    </g>
    <g id="Page-1" transform="translate(815.779 1982.997)">
      <g id="_090---Entreprenuerial-Studies" data-name="090---Entreprenuerial-Studies">
        <path id="Shape" d="M14.787,48.973v1.379a1.383,1.383,0,0,0,1.379,1.379H3.068A2.068,2.068,0,0,1,1,49.663V44.148q0-.393.021-.765a10.2,10.2,0,0,1,6.687-8.9l2.937-1.1h.007s0,.765,1.765,1.393a7.233,7.233,0,0,0,3.357.345l1.434,12.477H16.166A1.383,1.383,0,0,0,14.787,48.973Z" transform="translate(-0.311 -11.058)" fill="#ef314c"/>
        <path id="Shape-2" data-name="Shape" d="M19.755,47.595H20.8L19.362,35.117a7.233,7.233,0,0,1-3.357-.345c-1.765-.627-1.765-1.393-1.765-1.393h-.007l-1.679.631a3.918,3.918,0,0,0,1.382.758,7.233,7.233,0,0,0,3.357.345l1.434,12.481H17.687a1.383,1.383,0,0,0-1.379,1.379v1.379a1.383,1.383,0,0,0,1.379,1.379h2.068a1.383,1.383,0,0,1-1.379-1.379V48.973A1.383,1.383,0,0,1,19.755,47.595Z" transform="translate(-3.9 -11.058)" fill="#bb193b"/>
        <path id="Shape-3" data-name="Shape" d="M26.524,11.933v7.845a3.332,3.332,0,0,1-.1.834H20.147a5.328,5.328,0,0,0,.483-.5,5.117,5.117,0,0,0,.938-1.682l.772-2.316a2.085,2.085,0,1,0,0-4.171s-1.048-2.1-2.613-2.1c-5.756,0-6.8-2.613-6.8-2.613a2.789,2.789,0,0,1-2.089,2.613v2.1a2.085,2.085,0,0,0,0,4.171l.772,2.316a5.227,5.227,0,0,0,.931,1.682,7.085,7.085,0,0,0,1.4,1.22l-.007.007a3.341,3.341,0,0,1-1.282,2.1H10.31a3.658,3.658,0,0,1-3.66-3.66V12.2A10.107,10.107,0,0,1,16.432,2a9.957,9.957,0,0,1,10.092,9.934Z" transform="translate(-2.066 -1.309)" fill="sienna"/>
        <path id="Shape-4" data-name="Shape" d="M12.551,22.475a5.227,5.227,0,0,1-.931-1.682l-.772-2.316a2.085,2.085,0,0,1,0-4.171V12.2a3.171,3.171,0,0,0,1.613-1.095,3.592,3.592,0,0,1-1.592-1.517A2.789,2.789,0,0,1,8.78,12.2v2.1a2.085,2.085,0,1,0,0,4.171l.772,2.316a5.227,5.227,0,0,0,.931,1.682,7.085,7.085,0,0,0,1.4,1.22l-.007.007a3.341,3.341,0,0,1-1.282,2.1h2.068a3.341,3.341,0,0,0,1.282-2.1l.007-.007a7.085,7.085,0,0,1-1.4-1.222Z" transform="translate(-2.08 -3.668)" fill="#783e22"/>
        <path id="Shape-5" data-name="Shape" d="M27.619,4.915A9.9,9.9,0,0,0,20.443,2c-.3,0-.591.028-.881.059a9.948,9.948,0,0,1,8.905,9.874v7.845a3.332,3.332,0,0,1-.1.834h2.068a3.332,3.332,0,0,0,.1-.834V11.933a9.888,9.888,0,0,0-2.916-7.018Z" transform="translate(-6.077 -1.309)" fill="#783e22"/>
        <rect id="Rectangle-path" width="27" height="5" rx="2" transform="translate(14.359 36.359)" fill="#7f8e94"/>
        <path id="Shape-6" data-name="Shape" d="M56.068,54H54a1.383,1.383,0,0,1,1.379,1.379v1.379A1.383,1.383,0,0,1,54,58.136h2.068a1.383,1.383,0,0,0,1.379-1.379V55.379A1.383,1.383,0,0,0,56.068,54Z" transform="translate(-16.775 -17.463)" fill="#545c60"/>
        <path id="Shape-7" data-name="Shape" d="M20.122,34.083a7.233,7.233,0,0,1-3.357-.345C15,33.111,15,32.346,15,32.346c.083-.069.159-.124.234-.193h.007a3.341,3.341,0,0,0,1.282-2.1l.007-.007c.131.1.269.186.407.269a4.669,4.669,0,0,0,2.24.793,2.713,2.713,0,0,0,.682-.1,2.014,2.014,0,0,0-.021.614Z" transform="translate(-4.66 -10.023)" fill="#dfc49c"/>
        <path id="Shape-8" data-name="Shape" d="M25.374,16.394a2.081,2.081,0,0,1-2.089,2.082l-.772,2.316a5.117,5.117,0,0,1-.938,1.682,5.328,5.328,0,0,1-.483.5h-.848a2.068,2.068,0,0,0-2.034,1.689,2.713,2.713,0,0,1-.682.1,4.669,4.669,0,0,1-2.24-.793c-.138-.083-.276-.172-.407-.269a7.084,7.084,0,0,1-1.4-1.22,5.227,5.227,0,0,1-.931-1.682l-.772-2.316a2.085,2.085,0,1,1,0-4.171V12.2A2.789,2.789,0,0,0,13.869,9.59s1.048,2.613,6.8,2.613c1.565,0,2.613,2.1,2.613,2.1a2.083,2.083,0,0,1,2.089,2.089Z" transform="translate(-3.012 -3.667)" fill="#ffe0b2"/>
        <path id="Shape-9" data-name="Shape" d="M21.912,22.97h.848a5.328,5.328,0,0,0,.483-.5,5.117,5.117,0,0,0,.938-1.682l.772-2.316a2.085,2.085,0,0,0,0-4.171S23.9,12.2,22.34,12.2c-5.756,0-6.8-2.613-6.8-2.613a2.507,2.507,0,0,1-.476,1.517A10.5,10.5,0,0,0,20.272,12.2c1.565,0,2.613,2.1,2.613,2.1a2.085,2.085,0,1,1,0,4.171l-.772,2.316a5.117,5.117,0,0,1-.938,1.682,5.328,5.328,0,0,1-.483.5Z" transform="translate(-4.678 -3.667)" fill="#dfc49c"/>
        <path id="Shape-10" data-name="Shape" d="M46.8,31.3,45.086,46.234H23.73L22.3,33.757,22.014,31.3a2.014,2.014,0,0,1,.021-.614A2.068,2.068,0,0,1,24.068,29H44.749A2.068,2.068,0,0,1,46.8,31.3Z" transform="translate(-6.834 -9.697)" fill="#9e9e9e"/>
        <path id="Shape-11" data-name="Shape" d="M54.068,29H52a2.068,2.068,0,0,1,2.054,2.3L52.338,46.234h2.068L56.122,31.3A2.068,2.068,0,0,0,54.068,29Z" transform="translate(-16.153 -9.697)" fill="#707070"/>
        <circle id="Oval" cx="3.5" cy="3.5" r="3.5" transform="translate(24.359 25.359)" fill="#f5f5f5"/>
        <g id="Grupo_1189654" data-name="Grupo 1189654">
          <path id="Shape-12" data-name="Shape" d="M39.293,36.846h-.267l1.628-14.162a2.757,2.757,0,0,0-2.74-3.072H25.14c0-.048.008-.1.008-.145V11.623A10.646,10.646,0,0,0,14.356,1,10.805,10.805,0,0,0,3.895,11.885v7.583A4.355,4.355,0,0,0,7.32,23.717l-.168.063A10.868,10.868,0,0,0,.021,33.286c-.013.261-.021.527-.021.8V39.6a2.757,2.757,0,0,0,2.757,2.757H39.293a2.068,2.068,0,0,0,2.068-2.068V38.914a2.068,2.068,0,0,0-2.068-2.068Zm-.345-15.391a1.351,1.351,0,0,1,.336,1.071L37.639,36.846H17.51L16.145,24.969v-.006l-.281-2.44a1.349,1.349,0,0,1,.336-1.069,1.384,1.384,0,0,1,1.033-.464H37.915A1.384,1.384,0,0,1,38.949,21.455ZM18.032,19.367c-.069.079-.144.162-.228.245h-.57a2.762,2.762,0,0,0-2.063.927,2.726,2.726,0,0,0-.5.847c-.052,0-.105.012-.152.012a4.007,4.007,0,0,1-1.881-.689A7.129,7.129,0,0,1,11,19.366a4.525,4.525,0,0,1-.807-1.459l-.772-2.316a.689.689,0,0,0-.654-.472,1.4,1.4,0,0,1,0-2.792.689.689,0,0,0,.689-.689v-1.62A3.6,3.6,0,0,0,11.2,8.406c1,.847,2.91,1.817,6.457,1.817.926,0,1.755,1.241,2,1.723a.689.689,0,0,0,.616.382,1.4,1.4,0,0,1,0,2.792.689.689,0,0,0-.654.472l-.771,2.314a4.45,4.45,0,0,1-.82,1.461Zm-5.778,2.71a4.984,4.984,0,0,0,2.251.7l.19,1.649a6.574,6.574,0,0,1-2.359-.361,3.3,3.3,0,0,1-1.121-.6A4.226,4.226,0,0,0,12.255,22.077ZM5.274,19.467V11.885a9.42,9.42,0,0,1,9.1-9.506,9.268,9.268,0,0,1,9.393,9.245v7.844c0,.05-.006.1-.008.145H19.55a5.928,5.928,0,0,0,.606-1.271l.631-1.892a2.775,2.775,0,0,0-.094-5.471c-.423-.689-1.5-2.137-3.033-2.137-5.125,0-6.159-2.171-6.164-2.18a.689.689,0,0,0-1.329.256A2.058,2.058,0,0,1,8.6,8.862a.689.689,0,0,0-.522.669v1.5a2.774,2.774,0,0,0,.177,5.416l.631,1.894a5.9,5.9,0,0,0,1.055,1.905A7.376,7.376,0,0,0,11.085,21.3a2.773,2.773,0,0,1-.782,1.137H8.245a2.975,2.975,0,0,1-2.971-2.971ZM1.379,39.6V34.089q0-.374.019-.729a9.488,9.488,0,0,1,6.239-8.29L10,24.185a4.024,4.024,0,0,0,1.881,1.179,7.983,7.983,0,0,0,2.633.447c.114,0,.227-.018.345-.023l1.269,11.058h-.267a2.068,2.068,0,0,0-2.068,2.068v1.379a2.045,2.045,0,0,0,.127.689H6.2V33.4a.689.689,0,0,0-1.379,0v7.583H2.757A1.379,1.379,0,0,1,1.379,39.6Zm38.6.689a.689.689,0,0,1-.689.689H15.855a.689.689,0,0,1-.689-.689V38.914a.689.689,0,0,1,.689-.689H39.293a.689.689,0,0,1,.689.689Z" transform="translate(0 -0.999)"/>
          <path id="Shape-13" data-name="Shape" d="M38.136,45.272A4.136,4.136,0,1,0,34,41.136,4.136,4.136,0,0,0,38.136,45.272Zm0-6.894a2.757,2.757,0,1,1-2.757,2.757A2.757,2.757,0,0,1,38.136,38.379Z" transform="translate(-10.562 -12.182)"/>
        </g>
      </g>
    </g>
  </g>
</svg>
