<svg xmlns="http://www.w3.org/2000/svg" width="76.345" height="76.344" viewBox="0 0 76.345 76.344">
  <g id="Grupo_1189871" data-name="Grupo 1189871" transform="translate(-1021.967 -3092.655)">
    <g id="Grupo_1187152" data-name="Grupo 1187152">
      <g id="Grupo_1185946" data-name="Grupo 1185946" transform="translate(-3.07)">
        <g id="Grupo_1184280" data-name="Grupo 1184280">
          <g id="Grupo_1182168" data-name="Grupo 1182168">
            <g id="Grupo_1178877" data-name="Grupo 1178877">
              <g id="Grupo_1111311" data-name="Grupo 1111311">
                <g id="Grupo_1098742" data-name="Grupo 1098742" transform="translate(1025.482 3093.101)">
                  <g id="Rectángulo_400898" data-name="Rectángulo 400898" transform="translate(-0.445 -0.445)" fill="#fbe4a3" stroke="#f6bc1c" stroke-width="1" opacity="0.859">
                    <rect width="76.345" height="76.345" rx="38.172" stroke="none"/>
                    <rect x="0.5" y="0.5" width="75.345" height="75.345" rx="37.672" fill="none"/>
                  </g>
                  <g id="Rectángulo_400907" data-name="Rectángulo 400907" transform="translate(-0.446 -0.445)" fill="none" stroke="#f6bc1c" stroke-width="1">
                    <rect width="76.345" height="76.345" rx="38.172" stroke="none"/>
                    <rect x="0.5" y="0.5" width="75.345" height="75.345" rx="37.672" fill="none"/>
                  </g>
                </g>
              </g>
            </g>
          </g>
        </g>
      </g>
    </g>
    <g id="_06._xls_Microsoft_Excel_Spreadsheet_" data-name="06. xls (Microsoft Excel Spreadsheet)" transform="translate(1033.014 3101.379)">
      <path id="Trazado_1263190" data-name="Trazado 1263190" d="M7,6.944V50.326a3.944,3.944,0,0,0,3.944,3.944H38.551a3.944,3.944,0,0,0,3.944-3.944V14.832L30.663,3H10.944A3.944,3.944,0,0,0,7,6.944Z" transform="translate(2.43 0.486)" fill="#fff"/>
      <path id="Trazado_1263191" data-name="Trazado 1263191" d="M7,21H42.495v1.972H7Z" transform="translate(2.43 17.981)" fill="gray"/>
      <path id="Trazado_1263192" data-name="Trazado 1263192" d="M5,20v5.916l3.944,1.972V21.972Z" transform="translate(0.486 17.009)" fill="#006837"/>
      <path id="Trazado_1263193" data-name="Trazado 1263193" d="M28.944,20v5.916L25,27.888V21.972Z" transform="translate(19.925 17.009)" fill="#006837"/>
      <rect id="Rectángulo_411034" data-name="Rectángulo 411034" width="43.383" height="19.719" rx="2" transform="translate(5.486 19.261)" fill="#22b573"/>
      <path id="Trazado_1263194" data-name="Trazado 1263194" d="M18,3V14.832A1.972,1.972,0,0,0,19.972,16.8H31.8V14.832L19.972,3Z" transform="translate(13.121 0.486)" fill="gray"/>
      <path id="Trazado_1263195" data-name="Trazado 1263195" d="M19,3,30.832,14.832h-9.86A1.972,1.972,0,0,1,19,12.86Z" transform="translate(14.093 0.486)" fill="#22b573"/>
      <path id="Trazado_1263196" data-name="Trazado 1263196" d="M12.388,9.4a.986.986,0,0,1,.986-.986h9.86a.986.986,0,1,1,0,1.972h-9.86A.986.986,0,0,1,12.388,9.4Zm14.789,4.93h-13.8a.986.986,0,1,0,0,1.972h13.8a.986.986,0,0,0,0-1.972Zm-13.8,29.579H31.121a.986.986,0,0,0,0-1.972H13.374a.986.986,0,1,0,0,1.972Zm27.607-1.972H35.065a.986.986,0,1,0,0,1.972h5.916a.986.986,0,0,0,0-1.972Zm-3.944,5.916H13.374a.986.986,0,1,0,0,1.972H37.037a.986.986,0,0,0,0-1.972ZM49.854,23.205V40.953a4.93,4.93,0,0,1-3.945,4.831v5.028a4.93,4.93,0,0,1-4.93,4.93H13.374a4.93,4.93,0,0,1-4.93-4.93V45.784A4.93,4.93,0,0,1,4.5,40.953V23.205a4.93,4.93,0,0,1,3.945-4.831V7.43a4.93,4.93,0,0,1,4.93-4.93H33.349a.789.789,0,0,1,.434.237L45.615,14.568a.789.789,0,0,1,.237.434,1.26,1.26,0,0,1,0,.138v3.175a4.93,4.93,0,0,1,4,4.89ZM34.079,5.872v7.474a.986.986,0,0,0,.986.986h7.474Zm-23.663,12.4H43.939V16.3H35.065a2.958,2.958,0,0,1-2.958-2.958V4.472H13.374A2.958,2.958,0,0,0,10.416,7.43ZM6.472,35.037A2.958,2.958,0,0,0,9.43,37.995H44.925a2.958,2.958,0,0,0,2.958-2.958V23.205a2.958,2.958,0,0,0-2.958-2.958H9.43a2.958,2.958,0,0,0-2.958,2.958Zm1.972,8.7V39.789a5.009,5.009,0,0,1-1.972-.907v1.972a2.978,2.978,0,0,0,1.972,2.879Zm35.495-3.766H10.416V50.812a2.958,2.958,0,0,0,2.958,2.958H40.981a2.958,2.958,0,0,0,2.958-2.958Zm3.944.986V38.981a5.009,5.009,0,0,1-1.972.907v3.944a2.978,2.978,0,0,0,1.972-2.879ZM35.558,33.065h-.986a1.5,1.5,0,0,1-1.479-1.479.986.986,0,1,0-1.972,0,3.471,3.471,0,0,0,3.451,3.451h.986a3.451,3.451,0,1,0,0-6.9h-.986a1.479,1.479,0,1,1,0-2.958h.986a1.5,1.5,0,0,1,1.479,1.479.986.986,0,0,0,1.972,0,3.471,3.471,0,0,0-3.451-3.451h-.986a3.451,3.451,0,0,0,0,6.9h.986a1.479,1.479,0,0,1,0,2.958ZM15.839,34.9a.946.946,0,0,0,.513.138,1.025,1.025,0,0,0,.848-.473l2.09-3.471,2.11,3.53a1.025,1.025,0,0,0,.848.473.947.947,0,0,0,.513-.138A1.006,1.006,0,0,0,23.1,33.6l-2.662-4.476L23.1,24.7a.991.991,0,0,0-1.7-1.025l-2.11,3.471-2.11-3.53a.991.991,0,1,0-1.7,1.025l2.662,4.476-2.662,4.417a1.006,1.006,0,0,0,.335,1.361Zm11.339.138a.986.986,0,0,0,.986-.986v-9.86a.986.986,0,1,0-1.972,0v9.86A.986.986,0,0,0,27.177,35.037Z" transform="translate(0 0)"/>
    </g>
  </g>
</svg>
