<svg xmlns="http://www.w3.org/2000/svg" xmlns:xlink="http://www.w3.org/1999/xlink" width="118" height="118" viewBox="0 0 118 118">
  <defs>
    <filter id="Elipse_12115" x="0" y="0" width="118" height="118" filterUnits="userSpaceOnUse">
      <feOffset dy="3" input="SourceAlpha"/>
      <feGaussianBlur stdDeviation="3" result="blur"/>
      <feFlood flood-opacity="0.161"/>
      <feComposite operator="in" in2="blur"/>
      <feComposite in="SourceGraphic"/>
    </filter>
  </defs>
  <g id="Grupo_1190486" data-name="Grupo 1190486" transform="translate(-321.781 -4441)">
    <g id="Grupo_1184522" data-name="Grupo 1184522" transform="translate(-424 595)">
      <g id="Grupo_1181949" data-name="Grupo 1181949" transform="translate(-54 1303)">
        <g transform="matrix(1, 0, 0, 1, 799.78, 2543)" filter="url(#Elipse_12115)">
          <circle id="Elipse_12115-2" data-name="Elipse 12115" cx="50" cy="50" r="50" transform="translate(9 6)" fill="#00ce3b"/>
        </g>
      </g>
    </g>
    <g id="Alert" transform="translate(346.05 4464.99)">
      <g id="Grupo_1191057" data-name="Grupo 1191057">
        <rect id="Rectángulo_411781" data-name="Rectángulo 411781" width="27" height="7.71" rx="3" transform="translate(32 5)" fill="#62bcdb"/>
        <rect id="Rectángulo_411782" data-name="Rectángulo 411782" width="27" height="7.71" rx="3" transform="translate(32 12.71)" fill="#62bcdb"/>
        <rect id="Rectángulo_411783" data-name="Rectángulo 411783" width="27" height="7.71" rx="3" transform="translate(32 20.43)" fill="#62bcdb"/>
        <rect id="Rectángulo_411784" data-name="Rectángulo 411784" width="27" height="7.71" rx="3" transform="translate(32 28.14)" fill="#62bcdb"/>
        <rect id="Rectángulo_411785" data-name="Rectángulo 411785" width="27" height="7.71" rx="3" transform="translate(32 35.86)" fill="#62bcdb"/>
        <rect id="Rectángulo_411786" data-name="Rectángulo 411786" width="27" height="7.71" rx="3" transform="translate(32 43.57)" fill="#62bcdb"/>
        <rect id="Rectángulo_411787" data-name="Rectángulo 411787" width="27" height="7.71" rx="3" transform="translate(32 51.29)" fill="#62bcdb"/>
      </g>
      <circle id="Elipse_12253" data-name="Elipse 12253" cx="18.5" cy="18.5" r="18.5" transform="translate(5 22)" fill="#f6bc1c"/>
      <circle id="Elipse_12254" data-name="Elipse 12254" cx="13.87" cy="13.87" r="13.87" transform="translate(9.63 26.63)" fill="#ffbc00"/>
      <path id="Trazado_1303714" data-name="Trazado 1303714" d="M56,60H37a1,1,0,0,1,0-2H56a1,1,0,0,1,0,2Z"/>
      <path id="Trazado_1303715" data-name="Trazado 1303715" d="M59,57a1,1,0,0,1-1-1V54.29a2,2,0,0,0-2-2H44a1,1,0,0,1,0-2H56a4,4,0,0,1,4,4V56A1,1,0,0,1,59,57Z"/>
      <path id="Trazado_1303716" data-name="Trazado 1303716" d="M56,52.29H44a1,1,0,0,1,0-2H56a2,2,0,0,0,2-2V46.57a2,2,0,0,0-2-2H46a1,1,0,0,1,0-2H56a4,4,0,0,1,4,4v1.72A4,4,0,0,1,56,52.29Z"/>
      <path id="Trazado_1303717" data-name="Trazado 1303717" d="M56,44.57H46a1,1,0,0,1,0-2H56a2,2,0,0,0,2-2V38.86a2,2,0,0,0-2-2H46a1,1,0,0,1,0-2H56a4,4,0,0,1,4,4v1.71A4,4,0,0,1,56,44.57Z"/>
      <path id="Trazado_1303718" data-name="Trazado 1303718" d="M56,36.86H46a1,1,0,0,1,0-2H56a2,2,0,0,0,2-2V31.14a2,2,0,0,0-2-2H43a1,1,0,0,1,0-2H56a4,4,0,0,1,4,4v1.72A4,4,0,0,1,56,36.86Z"/>
      <path id="Trazado_1303719" data-name="Trazado 1303719" d="M56,29.14H43a1,1,0,0,1,0-2H56a2,2,0,0,0,2-2V23.43a2,2,0,0,0-2-2H36a1,1,0,0,1,0-2H56a4,4,0,0,1,4,4v1.71A4,4,0,0,1,56,29.14Z"/>
      <path id="Trazado_1303720" data-name="Trazado 1303720" d="M56,21.43H35a4,4,0,0,1-4-4V15.71a4,4,0,0,1,4-4H56a1,1,0,0,1,0,2H35a2,2,0,0,0-2,2v1.72a2,2,0,0,0,2,2H56a2,2,0,0,0,2-2V17a1,1,0,0,1,2,0v.43A4,4,0,0,1,56,21.43Z"/>
      <path id="Trazado_1303721" data-name="Trazado 1303721" d="M56,13.71H35a4,4,0,0,1-4-4V8a4,4,0,0,1,4-4H56a4,4,0,0,1,4,4V9.71A4,4,0,0,1,56,13.71ZM35,6a2,2,0,0,0-2,2V9.71a2,2,0,0,0,2,2H56a2,2,0,0,0,2-2V8a2,2,0,0,0-2-2Z"/>
      <path id="Trazado_1303722" data-name="Trazado 1303722" d="M23.5,47.57a5.37,5.37,0,0,1-3.74-1.3,1,1,0,0,1,1.41-1.42A3.39,3.39,0,0,0,26.55,43,1.54,1.54,0,0,0,25,41.5H22A3.54,3.54,0,0,1,18.45,38c0-1.94,2.5-4.54,5.05-4.54a5.37,5.37,0,0,1,3.74,1.3,1,1,0,0,1-1.4,1.42,3.51,3.51,0,0,0-2.34-.73A3.56,3.56,0,0,0,20.45,38,1.54,1.54,0,0,0,22,39.5h3A3.54,3.54,0,0,1,28.55,43C28.55,45,26.05,47.57,23.5,47.57Z"/>
      <path id="Trazado_1303723" data-name="Trazado 1303723" d="M23.5,35.43a1,1,0,0,1-1-1v-2a1,1,0,0,1,2,0v2A1,1,0,0,1,23.5,35.43Z"/>
      <path id="Trazado_1303724" data-name="Trazado 1303724" d="M23.5,49.59a1,1,0,0,1-1-1v-2a1,1,0,0,1,2,0v2A1,1,0,0,1,23.5,49.59Z"/>
      <path id="Trazado_1303725" data-name="Trazado 1303725" d="M23.5,55.38a14.86,14.86,0,0,1-8-2.36,1,1,0,0,1,1.08-1.69,12.86,12.86,0,1,0-3.87-3.87A1.011,1.011,0,0,1,11,48.54a14.88,14.88,0,1,1,12.5,6.84Z"/>
      <path id="Trazado_1303726" data-name="Trazado 1303726" d="M23.5,60A19.5,19.5,0,1,1,43,40.5,19.5,19.5,0,0,1,23.5,60Zm0-37A17.5,17.5,0,1,0,41,40.5,17.5,17.5,0,0,0,23.5,23Z"/>
    </g>
  </g>
</svg>
