<svg xmlns="http://www.w3.org/2000/svg" xmlns:xlink="http://www.w3.org/1999/xlink" width="118" height="118" viewBox="0 0 118 118">
  <defs>
    <filter id="Elipse_12115" x="0" y="0" width="118" height="118" filterUnits="userSpaceOnUse">
      <feOffset dy="3" input="SourceAlpha"/>
      <feGaussianBlur stdDeviation="3" result="blur"/>
      <feFlood flood-opacity="0.161"/>
      <feComposite operator="in" in2="blur"/>
      <feComposite in="SourceGraphic"/>
    </filter>
  </defs>
  <g id="Grupo_1190244" data-name="Grupo 1190244" transform="translate(-794.781 -2538)">
    <g id="Grupo_1181947" data-name="Grupo 1181947" transform="translate(-5 -5)">
      <g transform="matrix(1, 0, 0, 1, 799.78, 2543)" filter="url(#Elipse_12115)">
        <g id="Elipse_12115-2" data-name="Elipse 12115" transform="translate(9 6)" fill="#fbe4a3" stroke="#f6bc1c" stroke-width="2">
          <circle cx="50" cy="50" r="50" stroke="none"/>
          <circle cx="50" cy="50" r="49" fill="none"/>
        </g>
      </g>
    </g>
    <g id="maths_12631747" transform="translate(824.297 2558.224)">
      <path id="Trazado_1303583" data-name="Trazado 1303583" d="M162.367,13.679a7.782,7.782,0,0,0-5.994-5.994,48.217,48.217,0,0,0-14.724,0,7.782,7.782,0,0,0-5.994,5.994,44.434,44.434,0,0,0-.565,7.362,44.434,44.434,0,0,0,.565,7.362,7.782,7.782,0,0,0,5.994,5.994,44.434,44.434,0,0,0,7.362.565,44.435,44.435,0,0,0,7.362-.565,7.782,7.782,0,0,0,5.994-5.994,44.437,44.437,0,0,0,.565-7.362A44.437,44.437,0,0,0,162.367,13.679ZM151,26.952a.334.334,0,0,1-.334.334h-2.435a.334.334,0,0,1-.334-.334V18.03l-2.68,1.5a.334.334,0,0,1-.5-.291V16.887a.335.335,0,0,1,.169-.291l3.1-1.757a.332.332,0,0,1,.165-.044h2.515a.334.334,0,0,1,.334.334V26.951Z" transform="translate(-119.527)"/>
      <path id="Trazado_1303584" data-name="Trazado 1303584" d="M27.287,269.619a7.782,7.782,0,0,0-5.994-5.994,44.432,44.432,0,0,0-7.362-.565,44.432,44.432,0,0,0-7.362.565,7.782,7.782,0,0,0-5.994,5.994,48.217,48.217,0,0,0,0,14.724,7.782,7.782,0,0,0,5.994,5.994,44.444,44.444,0,0,0,7.362.565,44.432,44.432,0,0,0,7.362-.565,7.782,7.782,0,0,0,5.994-5.994,44.434,44.434,0,0,0,.565-7.362A44.434,44.434,0,0,0,27.287,269.619Zm-8.75,10.968a.334.334,0,0,1,.334.334v2.138a.334.334,0,0,1-.334.334H9.3a.334.334,0,0,1-.334-.334V281.4a3.871,3.871,0,0,1,.8-2.584,7.963,7.963,0,0,1,3.346-2.082c2.23-.874,2.789-1.3,2.789-2.193,0-.8-.651-1.246-1.748-1.246a2.13,2.13,0,0,0-2.231,1.808.331.331,0,0,1-.352.269L9.171,275.2a.334.334,0,0,1-.309-.37c.3-2.593,2.368-4.265,5.324-4.265,2.769,0,4.814,1.71,4.814,4,0,1.988-1.1,3.216-3.922,4.275a7.148,7.148,0,0,0-2.36,1.189.889.889,0,0,0-.279.557h6.1Z" transform="translate(0 -226.472)"/>
      <path id="Trazado_1303585" data-name="Trazado 1303585" d="M297.457,269.619a7.782,7.782,0,0,0-5.994-5.994,48.216,48.216,0,0,0-14.724,0,7.782,7.782,0,0,0-5.994,5.994,48.216,48.216,0,0,0,0,14.724,7.782,7.782,0,0,0,5.994,5.994,48.219,48.219,0,0,0,14.724,0,7.782,7.782,0,0,0,5.994-5.994,48.219,48.219,0,0,0,0-14.724Zm-13.128,13.942c-3.017,0-4.969-1.559-5.433-4.168a.334.334,0,0,1,.272-.387l2.405-.425a.336.336,0,0,1,.385.258,2.154,2.154,0,0,0,2.371,1.953c1.246,0,1.877-.484,1.877-1.45,0-.892-.687-1.394-1.933-1.394h-.949a.334.334,0,0,1-.334-.334v-1.581a.334.334,0,0,1,.334-.334h.874c1.1,0,1.747-.446,1.747-1.208s-.687-1.3-1.728-1.3a1.933,1.933,0,0,0-2.069,1.359.333.333,0,0,1-.372.227l-2.39-.4a.333.333,0,0,1-.273-.4c.482-2.137,2.508-3.581,5.1-3.581,2.789,0,4.759,1.543,4.759,3.718a2.757,2.757,0,0,1-1.617,2.509v.037a3.115,3.115,0,0,1,1.952,3.011c0,2.287-2.008,3.885-4.982,3.885Z" transform="translate(-239.063 -226.472)"/>
    </g>
  </g>
</svg>
