<svg xmlns="http://www.w3.org/2000/svg" xmlns:xlink="http://www.w3.org/1999/xlink" width="118" height="118" viewBox="0 0 118 118">
  <defs>
    <filter id="Elipse_12115" x="0" y="0" width="118" height="118" filterUnits="userSpaceOnUse">
      <feOffset dy="3" input="SourceAlpha"/>
      <feGaussianBlur stdDeviation="3" result="blur"/>
      <feFlood flood-opacity="0.161"/>
      <feComposite operator="in" in2="blur"/>
      <feComposite in="SourceGraphic"/>
    </filter>
  </defs>
  <g id="Grupo_1190245" data-name="Grupo 1190245" transform="translate(-794.781 -2538)">
    <g id="Grupo_1181947" data-name="Grupo 1181947" transform="translate(-5 -5)">
      <g transform="matrix(1, 0, 0, 1, 799.78, 2543)" filter="url(#Elipse_12115)">
        <g id="Elipse_12115-2" data-name="Elipse 12115" transform="translate(9 6)" fill="#fbe4a3" stroke="#f6bc1c" stroke-width="2">
          <circle cx="50" cy="50" r="50" stroke="none"/>
          <circle cx="50" cy="50" r="49" fill="none"/>
        </g>
      </g>
    </g>
    <g id="_42.Cubes" data-name="42.Cubes" transform="translate(805.788 2528.93)">
      <path id="Trazado_1303586" data-name="Trazado 1303586" d="M173.3,36.75H153.214a3.719,3.719,0,0,0-3.714,3.714V60.549a3.719,3.719,0,0,0,3.714,3.714H173.3a3.719,3.719,0,0,0,3.714-3.714V40.464A3.719,3.719,0,0,0,173.3,36.75Zm-3.307,23.444a1.788,1.788,0,0,1-1.671-1.152l-.717-1.885a1.482,1.482,0,0,0-1.385-.955h-5.882a1.483,1.483,0,0,0-1.378.936l-.761,1.925a1.788,1.788,0,0,1-1.659,1.13h-.015a1.786,1.786,0,0,1-1.668-2.428l5.868-15.2a2.727,2.727,0,0,1,5.088,0l5.851,15.2a1.785,1.785,0,0,1-1.671,2.43Z" transform="translate(-115.263)"/>
      <path id="Trazado_1303587" data-name="Trazado 1303587" d="M241.112,116.458a.593.593,0,0,0-1.1,0l-1.732,4.428a.592.592,0,0,0,.553.807h3.453a.592.592,0,0,0,.553-.806Z" transform="translate(-192.536 -69.084)"/>
      <path id="Trazado_1303588" data-name="Trazado 1303588" d="M109.107,378.8a5.188,5.188,0,0,0-3.119-.725.767.767,0,0,0-.767.766v3.433a.766.766,0,0,0,.767.766h.158a5.724,5.724,0,0,0,3.1-.579,1.959,1.959,0,0,0,.8-1.687,2.361,2.361,0,0,0-.939-1.975Z" transform="translate(-76.703 -297.241)"/>
      <path id="Trazado_1303589" data-name="Trazado 1303589" d="M40.939,262.25H20.854a3.719,3.719,0,0,0-3.714,3.714v20.086a3.719,3.719,0,0,0,3.714,3.714H40.939a3.717,3.717,0,0,0,3.714-3.714V265.964a3.717,3.717,0,0,0-3.714-3.714Zm-4.817,20.77a5.389,5.389,0,0,1-2.176,2.009,8.4,8.4,0,0,1-3.683.665H26.444a1.618,1.618,0,0,1-1.618-1.617V267.931a1.618,1.618,0,0,1,1.618-1.617h1.431a15.757,15.757,0,0,1,3.875.342,5.2,5.2,0,0,1,2.772,1.713,4.5,4.5,0,0,1,1.033,2.95,4.3,4.3,0,0,1-.468,2.009,4.571,4.571,0,0,1-.984,1.246.479.479,0,0,0,.085.769,5.646,5.646,0,0,1,1.961,1.752,5.265,5.265,0,0,1,.816,2.944A5.48,5.48,0,0,1,36.122,283.02Z" transform="translate(0 -196.373)"/>
      <path id="Trazado_1303590" data-name="Trazado 1303590" d="M105.987,325.08h.04a3,3,0,0,0,2-.567,1.933,1.933,0,0,0,.655-1.541,1.8,1.8,0,0,0-.621-1.441,2.859,2.859,0,0,0-1.892-.531h-.186a.766.766,0,0,0-.767.766v2.55A.767.767,0,0,0,105.987,325.08Z" transform="translate(-76.703 -247.534)"/>
      <path id="Trazado_1303591" data-name="Trazado 1303591" d="M305.659,262.25H285.574a3.717,3.717,0,0,0-3.714,3.714v20.086a3.717,3.717,0,0,0,3.714,3.714h20.086a3.719,3.719,0,0,0,3.714-3.714V265.964A3.719,3.719,0,0,0,305.659,262.25Zm-14.3,17.008a5.746,5.746,0,0,0,2.277,2.247,6.626,6.626,0,0,0,3.269.815,6.757,6.757,0,0,0,2.8-.571,7.685,7.685,0,0,0,1.63-1.033,1.718,1.718,0,1,1,2.142,2.685,10.79,10.79,0,0,1-2.466,1.519,10.572,10.572,0,0,1-4.166.775,9.608,9.608,0,0,1-7.067-2.728,9.424,9.424,0,0,1-2.75-6.991,9.573,9.573,0,0,1,1.252-4.908,9.245,9.245,0,0,1,3.587-3.449,10.145,10.145,0,0,1,5.028-1.3,10.721,10.721,0,0,1,6.684,2.361,1.713,1.713,0,0,1,.1,2.573l-.012.009a1.719,1.719,0,0,1-2.249.11,7.209,7.209,0,0,0-4.574-1.652,6.192,6.192,0,0,0-6.287,6.266A6.571,6.571,0,0,0,291.355,279.258Z" transform="translate(-230.527 -196.373)"/>
    </g>
  </g>
</svg>
