<svg xmlns="http://www.w3.org/2000/svg" xmlns:xlink="http://www.w3.org/1999/xlink" width="118" height="118" viewBox="0 0 118 118">
  <defs>
    <filter id="Elipse_12115" x="0" y="0" width="118" height="118" filterUnits="userSpaceOnUse">
      <feOffset dy="3" input="SourceAlpha"/>
      <feGaussianBlur stdDeviation="3" result="blur"/>
      <feFlood flood-opacity="0.161"/>
      <feComposite operator="in" in2="blur"/>
      <feComposite in="SourceGraphic"/>
    </filter>
  </defs>
  <g id="Grupo_1190690" data-name="Grupo 1190690" transform="translate(-794.781 -2538)">
    <g id="Grupo_1181947" data-name="Grupo 1181947" transform="translate(-5 -5)">
      <g transform="matrix(1, 0, 0, 1, 799.78, 2543)" filter="url(#Elipse_12115)">
        <g id="Elipse_12115-2" data-name="Elipse 12115" transform="translate(9 6)" fill="#fbe4a3" stroke="#f6bc1c" stroke-width="2">
          <circle cx="50" cy="50" r="50" stroke="none"/>
          <circle cx="50" cy="50" r="49" fill="none"/>
        </g>
      </g>
    </g>
    <g id="Layer_x0020_1" transform="translate(785.806 2562.927)">
      <path id="Trazado_1303727" data-name="Trazado 1303727" d="M88,55.471H68.946a.783.783,0,0,1-.728-.728.7.7,0,0,1,.728-.728H88a.7.7,0,0,1,.728.728A.783.783,0,0,1,88,55.471Zm5.219,5.948H63.848a.7.7,0,0,1-.728-.728V44.061H44.792a.783.783,0,0,1-.728-.728V.728A.783.783,0,0,1,44.792,0H64.577a.92.92,0,0,1,.486.243L74.651,9.1a.927.927,0,0,1,.243.607v7.647h8.739a.485.485,0,0,1,.486.243l9.589,8.861a.927.927,0,0,1,.243.607V60.69A.783.783,0,0,1,93.222,61.418ZM63.12,42.6V38.113H50.011a.7.7,0,0,1-.728-.728.644.644,0,0,1,.728-.728H63.12V32.651H50.011a.728.728,0,1,1,0-1.457H63.12V27.189H50.011a.728.728,0,0,1,0-1.457H63.12V21.727H50.011A.644.644,0,0,1,49.283,21a.7.7,0,0,1,.728-.728H63.12V18.086a.7.7,0,0,1,.728-.728h9.589v-7.04H64.577a.7.7,0,0,1-.728-.728V1.457H45.52V42.6Zm19.785-23.79H64.577V59.962H92.494V27.675H83.633a.783.783,0,0,1-.728-.728Zm1.457,7.4H91.4l-7.04-6.433ZM65.3,8.861h7.04L65.3,2.428ZM50.739,62.146a8.679,8.679,0,1,1,8.618-8.739A8.6,8.6,0,0,1,50.739,62.146Zm0-16.022a7.283,7.283,0,1,0,0,14.566A7.2,7.2,0,0,0,57.9,53.407,7.125,7.125,0,0,0,50.739,46.124Zm3.277,11.288a.73.73,0,0,1-.486-.121L50.739,54.5l-2.792,2.792a.91.91,0,0,1-.607.121.73.73,0,0,1-.486-.121.91.91,0,0,1,0-1.092l2.792-2.792-2.792-2.792a.772.772,0,0,1,1.092-1.092l2.792,2.913,2.792-2.913a.772.772,0,0,1,1.092,1.092L51.71,53.407,54.624,56.2a.91.91,0,0,1,0,1.092A1.094,1.094,0,0,1,54.017,57.413Zm14.93-41.148H50.011a.644.644,0,0,1-.728-.728.7.7,0,0,1,.728-.728H68.946a.783.783,0,0,1,.728.728A.7.7,0,0,1,68.946,16.265ZM88,33.622H68.946a.728.728,0,0,1,0-1.457H88a.728.728,0,0,1,0,1.457Zm0,5.462H68.946a.728.728,0,1,1,0-1.457H88a.728.728,0,1,1,0,1.457Zm0,5.462H68.946a.728.728,0,1,1,0-1.457H88a.728.728,0,1,1,0,1.457Zm0,5.462H68.946a.783.783,0,0,1-.728-.728.7.7,0,0,1,.728-.728H88a.7.7,0,0,1,.728.728A.783.783,0,0,1,88,50.008Z" fill="#092f6a" fill-rule="evenodd"/>
      <path id="Trazado_1303728" data-name="Trazado 1303728" d="M75.491,25.352H94.426a.783.783,0,0,1,.728.728.7.7,0,0,1-.728.728H75.491a.644.644,0,0,1-.728-.728A.7.7,0,0,1,75.491,25.352Zm0,5.462H88.6V28.629a.7.7,0,0,1,.728-.728h9.589v-7.04H90.057a.7.7,0,0,1-.728-.728V12H71V53.148H88.6V48.657H75.491a.7.7,0,0,1-.728-.728.644.644,0,0,1,.728-.728H88.6V43.195H75.491a.728.728,0,0,1,0-1.457H88.6V37.733H75.491a.728.728,0,0,1,0-1.457H88.6V32.27H75.491a.644.644,0,0,1-.728-.728A.7.7,0,0,1,75.491,30.814Z" transform="translate(-25.48 -10.543)" fill="#42a5f5" fill-rule="evenodd"/>
      <path id="Trazado_1303729" data-name="Trazado 1303729" d="M234,20v6.433h7.04Z" transform="translate(-168.695 -17.572)" fill="#fff" fill-rule="evenodd"/>
      <path id="Trazado_1303730" data-name="Trazado 1303730" d="M391,163v6.433h7.04Z" transform="translate(-306.638 -143.215)" fill="#fff" fill-rule="evenodd"/>
      <path id="Trazado_1303731" data-name="Trazado 1303731" d="M246.328,163.132V155H228v41.148h27.917V163.861h-8.861A.783.783,0,0,1,246.328,163.132Zm-13.959,5.219h19.057a.728.728,0,1,1,0,1.457H232.37a.728.728,0,0,1,0-1.457Zm0,5.462h19.057a.728.728,0,1,1,0,1.457H232.37a.728.728,0,0,1,0-1.457Zm0,5.462h19.057a.728.728,0,1,1,0,1.457H232.37a.728.728,0,0,1,0-1.457Zm0,5.462h19.057a.7.7,0,0,1,.728.728.783.783,0,0,1-.728.728H232.37a.783.783,0,0,1-.728-.728A.7.7,0,0,1,232.37,184.738Zm0,5.462h19.057a.7.7,0,0,1,.728.728.783.783,0,0,1-.728.728H232.37a.783.783,0,0,1-.728-.728A.7.7,0,0,1,232.37,190.2Z" transform="translate(-163.423 -136.186)" fill="#42a5f5" fill-rule="evenodd"/>
      <path id="Trazado_1303732" data-name="Trazado 1303732" d="M68.444,387.283A7.125,7.125,0,0,0,61.283,380a7.283,7.283,0,1,0,0,14.566A7.2,7.2,0,0,0,68.444,387.283Zm-3.277,2.792a.91.91,0,0,1,0,1.092,1.094,1.094,0,0,1-.607.121.73.73,0,0,1-.486-.121l-2.792-2.792-2.792,2.792a.909.909,0,0,1-.607.121.73.73,0,0,1-.486-.121.91.91,0,0,1,0-1.092l2.792-2.792L57.4,384.491a.772.772,0,0,1,1.092-1.092l2.792,2.913,2.792-2.913a.772.772,0,0,1,1.092,1.092l-2.913,2.792Z" transform="translate(-10.543 -333.876)" fill="#fff" fill-rule="evenodd"/>
    </g>
  </g>
</svg>
