<svg xmlns="http://www.w3.org/2000/svg" xmlns:xlink="http://www.w3.org/1999/xlink" width="118" height="118" viewBox="0 0 118 118">
  <defs>
    <filter id="Elipse_12115" x="0" y="0" width="118" height="118" filterUnits="userSpaceOnUse">
      <feOffset dy="3" input="SourceAlpha"/>
      <feGaussianBlur stdDeviation="3" result="blur"/>
      <feFlood flood-opacity="0.161"/>
      <feComposite operator="in" in2="blur"/>
      <feComposite in="SourceGraphic"/>
    </filter>
  </defs>
  <g id="Grupo_1190693" data-name="Grupo 1190693" transform="translate(-794.781 -2538)">
    <g id="Grupo_1181947" data-name="Grupo 1181947" transform="translate(-5 -5)">
      <g transform="matrix(1, 0, 0, 1, 799.78, 2543)" filter="url(#Elipse_12115)">
        <g id="Elipse_12115-2" data-name="Elipse 12115" transform="translate(9 6)" fill="#fbe4a3" stroke="#f6bc1c" stroke-width="2">
          <circle cx="50" cy="50" r="50" stroke="none"/>
          <circle cx="50" cy="50" r="49" fill="none"/>
        </g>
      </g>
    </g>
    <path id="internet_13855159" d="M36.086,35.029a1.2,1.2,0,0,1-1.2,1.2h-.007a1.195,1.195,0,1,1,1.208-1.2ZM13.27,39.688h3.386l5.451,4.527a1.206,1.206,0,0,0,.769.277,1.042,1.042,0,0,0,.5-.121,1.168,1.168,0,0,0,.7-1.08v-3.6h8.43a1.2,1.2,0,0,0,0-2.4h-9.63a1.26,1.26,0,0,0-.852.348,1.233,1.233,0,0,0-.348.853v2.246L17.87,37.562a1.213,1.213,0,0,0-.769-.276h-3.83a1.2,1.2,0,0,1-1.2-1.2V13.27a1.2,1.2,0,0,1,1.2-1.2H32.484a1.2,1.2,0,0,1,1.2,1.2V30.238a1.2,1.2,0,0,0,2.4,0V13.27a3.613,3.613,0,0,0-3.6-3.6H13.27a3.612,3.612,0,0,0-3.6,3.6V36.086a3.613,3.613,0,0,0,3.6,3.6Zm8.974-18.012h3.6a1.2,1.2,0,1,0,0-2.4h-1.8v-1.2a1.2,1.2,0,0,0-2.4,0v1.255a3.6,3.6,0,0,0,.6,7.151h1.2a1.2,1.2,0,1,1,0,2.4h-3.6a1.2,1.2,0,0,0,0,2.4h1.8v1.2a1.2,1.2,0,1,0,2.4,0V31.228a3.6,3.6,0,0,0-.6-7.151h-1.2a1.2,1.2,0,0,1,0-2.4Zm45.063,0V44.491a3.607,3.607,0,0,1-3.6,3.6H58.9v3.6a1.2,1.2,0,0,1-1.2,1.2V63.7a3.607,3.607,0,0,1-3.6,3.6H51.7a3.606,3.606,0,0,1-3.6-3.6V52.9a1.2,1.2,0,0,1-1.2-1.2v-3.6h-4.8a3.606,3.606,0,0,1-3.6-3.6V21.675a3.606,3.606,0,0,1,3.6-3.6H63.7A3.606,3.606,0,0,1,67.307,21.675Zm-2.4,0a1.2,1.2,0,0,0-1.2-1.2H42.089a1.2,1.2,0,0,0-1.2,1.2V44.491a1.2,1.2,0,0,0,1.2,1.2H63.7a1.2,1.2,0,0,0,1.2-1.2ZM55.3,52.9H50.5V63.7a1.2,1.2,0,0,0,1.2,1.2h2.4a1.2,1.2,0,0,0,1.2-1.2Zm1.2-4.8H49.294v2.4h7.2v-2.4ZM28.618,44.942a1.243,1.243,0,0,0-1.876,0l-4.8,6a1.2,1.2,0,0,0,.938,1.951h1.2V66.1a1.2,1.2,0,0,0,2.4,0h0V51.7a1.2,1.2,0,0,0-1.107-1.2l2.308-2.883L29.988,50.5a1.2,1.2,0,0,0-1.107,1.2V66.1h0a1.2,1.2,0,0,0,2.4,0V52.9h1.2a1.2,1.2,0,0,0,.938-1.951ZM16.61,53.347a1.243,1.243,0,0,0-1.876,0l-4.8,6a1.2,1.2,0,0,0,.938,1.951h1.2v4.8a1.2,1.2,0,0,0,2.4,0h0v-6a1.2,1.2,0,0,0-1.107-1.2l2.308-2.883L17.98,58.9a1.2,1.2,0,0,0-1.107,1.2v6h0a1.2,1.2,0,0,0,2.4,0V61.3h1.2a1.2,1.2,0,0,0,.938-1.951Zm24.016,0a1.243,1.243,0,0,0-1.876,0l-4.8,6a1.2,1.2,0,0,0,.938,1.951h1.2v4.8a1.2,1.2,0,0,0,2.4,0h0v-6a1.2,1.2,0,0,0-1.107-1.2l2.308-2.883L42,58.9a1.2,1.2,0,0,0-1.107,1.2v6h0a1.2,1.2,0,0,0,2.4,0V61.3h1.2a1.2,1.2,0,0,0,.938-1.951ZM51.7,26.479a1.2,1.2,0,0,0-1.2,1.2v7.673l-4.975-8.291a1.2,1.2,0,0,0-2.231.618V39.688a1.2,1.2,0,1,0,2.4,0V32.015l4.975,8.291a1.2,1.2,0,0,0,2.229-.618V27.68a1.2,1.2,0,0,0-1.2-1.2Zm10.808,7.2a3.6,3.6,0,1,1-3.6-3.6A3.606,3.606,0,0,1,62.5,33.684Zm-2.4,0a1.2,1.2,0,1,0-1.2,1.2A1.2,1.2,0,0,0,60.1,33.684Zm1.2,4.8H56.5a1.2,1.2,0,0,0,0,2.4h4.8a1.2,1.2,0,1,0,0-2.4Z" transform="translate(816.484 2556.704)"/>
  </g>
</svg>
