<svg xmlns="http://www.w3.org/2000/svg" xmlns:xlink="http://www.w3.org/1999/xlink" width="118" height="118" viewBox="0 0 118 118">
  <defs>
    <filter id="Elipse_12115" x="0" y="0" width="118" height="118" filterUnits="userSpaceOnUse">
      <feOffset dy="3" input="SourceAlpha"/>
      <feGaussianBlur stdDeviation="3" result="blur"/>
      <feFlood flood-opacity="0.161"/>
      <feComposite operator="in" in2="blur"/>
      <feComposite in="SourceGraphic"/>
    </filter>
  </defs>
  <g id="Grupo_1190695" data-name="Grupo 1190695" transform="translate(-794.781 -2538)">
    <g id="Grupo_1181947" data-name="Grupo 1181947" transform="translate(-5 -5)">
      <g transform="matrix(1, 0, 0, 1, 799.78, 2543)" filter="url(#Elipse_12115)">
        <g id="Elipse_12115-2" data-name="Elipse 12115" transform="translate(9 6)" fill="#fbe4a3" stroke="#f6bc1c" stroke-width="2">
          <circle cx="50" cy="50" r="50" stroke="none"/>
          <circle cx="50" cy="50" r="49" fill="none"/>
        </g>
      </g>
    </g>
    <g id="contract_11671754" transform="translate(817.216 2547.195)">
      <g id="Grupo_1191074" data-name="Grupo 1191074" transform="translate(8.927 18.535)">
        <g id="Grupo_1191070" data-name="Grupo 1191070" transform="translate(6.38 0)">
          <g id="Grupo_1191068" data-name="Grupo 1191068" transform="translate(0)">
            <path id="Trazado_1303742" data-name="Trazado 1303742" d="M64.734,79.452H98.092a1.051,1.051,0,0,0,.769-.319l6.11-6.11a1.051,1.051,0,0,0,.319-.769V26.566a1.09,1.09,0,0,0-1.088-1.088H64.734a1.09,1.09,0,0,0-1.088,1.088v51.8a1.09,1.09,0,0,0,1.088,1.088Z" transform="translate(-63.646 -25.478)" fill="#eceff1" fill-rule="evenodd"/>
            <path id="Trazado_1303743" data-name="Trazado 1303743" d="M64.734,79.452h1.313a1.09,1.09,0,0,1-1.088-1.088v-51.8a1.09,1.09,0,0,1,1.088-1.088H64.734a1.09,1.09,0,0,0-1.088,1.088v51.8A1.09,1.09,0,0,0,64.734,79.452Z" transform="translate(-63.646 -25.478)" fill="#d1d1d6" fill-rule="evenodd"/>
          </g>
          <path id="Trazado_1303744" data-name="Trazado 1303744" d="M329.4,391.79a1.091,1.091,0,0,0,.319-.224l6.11-6.11a1.092,1.092,0,0,0,.224-.319h-6.109a.545.545,0,0,0-.544.544v6.109Z" transform="translate(-294.506 -337.91)" fill="#a79ba7" fill-rule="evenodd"/>
          <g id="Grupo_1191069" data-name="Grupo 1191069" transform="translate(6.748 6.605)">
            <path id="Trazado_1303745" data-name="Trazado 1303745" d="M116.082,75.779h26.048a1.053,1.053,0,0,1,1.05,1.05v7.854a1.053,1.053,0,0,1-1.05,1.05H116.082a1.053,1.053,0,0,1-1.05-1.05V76.829A1.052,1.052,0,0,1,116.082,75.779Z" transform="translate(-115.032 -75.779)" fill="#fe646f" fill-rule="evenodd"/>
            <path id="Trazado_1303746" data-name="Trazado 1303746" d="M311.4,75.779h1.313a1.053,1.053,0,0,1,1.05,1.05v7.854a1.053,1.053,0,0,1-1.05,1.05H311.4a1.053,1.053,0,0,0,1.05-1.05V76.829A1.053,1.053,0,0,0,311.4,75.779Z" transform="translate(-285.616 -75.779)" fill="#fd4755" fill-rule="evenodd"/>
          </g>
        </g>
        <g id="Grupo_1191072" data-name="Grupo 1191072" transform="translate(0 40.079)">
          <g id="Grupo_1191071" data-name="Grupo 1191071">
            <circle id="Elipse_12257" data-name="Elipse 12257" cx="10.23" cy="10.23" r="10.23" fill="#fe646f"/>
            <path id="Trazado_1303747" data-name="Trazado 1303747" d="M25.947,330.721a10.23,10.23,0,1,0,0,20.418,10.23,10.23,0,0,1,0-20.418Z" transform="translate(-15.06 -330.7)" fill="#fd4755" fill-rule="evenodd"/>
          </g>
          <path id="Trazado_1303748" data-name="Trazado 1303748" d="M60.834,366.293a1.853,1.853,0,0,1,0,2.613l-2.474,2.474,2.474,2.474a1.848,1.848,0,0,1-2.613,2.613l-2.474-2.474-2.474,2.474a1.848,1.848,0,0,1-2.613-2.613l2.474-2.474-2.474-2.474a1.848,1.848,0,0,1,2.613-2.613l2.474,2.474,2.474-2.474A1.853,1.853,0,0,1,60.834,366.293Z" transform="translate(-45.516 -361.15)" fill="#eceff1" fill-rule="evenodd"/>
        </g>
        <g id="Grupo_1191073" data-name="Grupo 1191073" transform="translate(31.31 26.114)">
          <path id="Trazado_1303749" data-name="Trazado 1303749" d="M285.023,233.1l-9.14,7.76a.563.563,0,0,1-.928-.43v-3.614H254.63a1.13,1.13,0,0,1-1.127-1.127v-6.037a1.13,1.13,0,0,1,1.127-1.127h20.325v-3.614a.563.563,0,0,1,.928-.43l9.14,7.76A.564.564,0,0,1,285.023,233.1Z" transform="translate(-253.503 -224.348)" fill="#8ac9fe" fill-rule="evenodd"/>
          <path id="Trazado_1303750" data-name="Trazado 1303750" d="M285.023,233.1l-9.14,7.76a.563.563,0,0,1-.928-.43V236.82H254.63a1.13,1.13,0,0,1-1.127-1.127v-6.037a1.13,1.13,0,0,1,1.127-1.127h.186v6.025a1.13,1.13,0,0,0,1.127,1.127h20.325V239.3a.563.563,0,0,0,.928.43L285.121,233A.568.568,0,0,1,285.023,233.1Zm-10.068-4.575h1.313v-3.717l-.385-.327a.563.563,0,0,0-.928.43v3.614Z" transform="translate(-253.503 -224.349)" fill="#60b7ff" fill-rule="evenodd"/>
        </g>
      </g>
      <path id="Trazado_1303751" data-name="Trazado 1303751" d="M23.626,65.626,21.152,68.1a1.051,1.051,0,0,0,0,1.485l2.474,2.474a.8.8,0,0,1,0,1.128.8.8,0,0,1-1.127,0l-2.475-2.474a1.05,1.05,0,0,0-1.485,0l-2.475,2.474a.8.8,0,0,1-1.127-1.128l2.474-2.474a1.051,1.051,0,0,0,0-1.485l-2.474-2.475A.8.8,0,0,1,16.064,64.5l2.475,2.475a1.051,1.051,0,0,0,1.485,0L22.5,64.5a.8.8,0,0,1,1.127,1.128Zm1.486-2.613a2.9,2.9,0,0,0-4.1,0l-1.732,1.732L17.55,63.013a2.9,2.9,0,0,0-4.1,4.1l1.732,1.731-1.732,1.732a2.9,2.9,0,0,0,4.1,4.1l1.731-1.732,1.732,1.732a2.9,2.9,0,1,0,4.1-4.1L23.38,68.844l1.732-1.731a2.9,2.9,0,0,0,0-4.1Zm37.752-3.331V57.12a1.051,1.051,0,0,0-1.051-1.05H41.488a.079.079,0,0,1-.076-.077V49.956a.078.078,0,0,1,.076-.076H61.814a1.052,1.052,0,0,0,1.05-1.05V46.266l7.9,6.709Zm-6.84,5.029V58.171H41.488a2.182,2.182,0,0,1-2.012-1.345H21.8a1.05,1.05,0,1,1,0-2.1H39.311v-3H21.8a1.05,1.05,0,1,1,0-2.1h17.54a2.178,2.178,0,0,1,2.15-1.845H56.025V19.623a.04.04,0,0,0-.038-.037H16.519a.04.04,0,0,0-.038.037v38.3A11.286,11.286,0,0,1,30.257,71.459h19.02V66.307a1.6,1.6,0,0,1,1.594-1.6Zm-4.646,5.262V66.812H54.54ZM25.773,75.336a9.182,9.182,0,1,0-6.492,2.688A9.123,9.123,0,0,0,25.773,75.336ZM72.562,51.744l-9.14-7.761a1.613,1.613,0,0,0-2.659,1.23v2.565H58.126V19.623a2.141,2.141,0,0,0-2.139-2.138H16.519a2.141,2.141,0,0,0-2.139,2.138V58.685A11.278,11.278,0,1,0,29.534,73.56H49.877a2.1,2.1,0,0,0,1.513-.626l6.11-6.11a2.1,2.1,0,0,0,.626-1.513V58.171h2.638v2.563A1.6,1.6,0,0,0,61.7,62.2a1.6,1.6,0,0,0,1.724-.235l9.14-7.759a1.616,1.616,0,0,0,0-2.461ZM20.748,40.471a1.05,1.05,0,0,1,1.05-1.05h28.91a1.05,1.05,0,0,1,0,2.1H21.8a1.05,1.05,0,0,1-1.051-1.05Zm0,5.1a1.05,1.05,0,0,0,1.051,1.05H50.708a1.05,1.05,0,0,0,0-2.1H21.8A1.05,1.05,0,0,0,20.748,45.573ZM39.767,59.825H50.708a1.05,1.05,0,0,1,0,2.1H39.767a1.05,1.05,0,1,1,0-2.1ZM23.229,26.191H49.278v7.854H23.229Zm-1.05,9.955a1.051,1.051,0,0,1-1.051-1.05V25.14a1.05,1.05,0,0,1,1.051-1.05H50.328a1.051,1.051,0,0,1,1.051,1.05V35.1a1.052,1.052,0,0,1-1.05,1.05Z" fill="#242222" fill-rule="evenodd"/>
    </g>
  </g>
</svg>
