<svg xmlns="http://www.w3.org/2000/svg" xmlns:xlink="http://www.w3.org/1999/xlink" width="118" height="118" viewBox="0 0 118 118">
  <defs>
    <filter id="Elipse_12115" x="0" y="0" width="118" height="118" filterUnits="userSpaceOnUse">
      <feOffset dy="3" input="SourceAlpha"/>
      <feGaussianBlur stdDeviation="3" result="blur"/>
      <feFlood flood-opacity="0.161"/>
      <feComposite operator="in" in2="blur"/>
      <feComposite in="SourceGraphic"/>
    </filter>
  </defs>
  <g id="Grupo_1190484" data-name="Grupo 1190484" transform="translate(-321.781 -4441)">
    <g id="Grupo_1184522" data-name="Grupo 1184522" transform="translate(-424 595)">
      <g id="Grupo_1181949" data-name="Grupo 1181949" transform="translate(-54 1303)">
        <g transform="matrix(1, 0, 0, 1, 799.78, 2543)" filter="url(#Elipse_12115)">
          <circle id="Elipse_12115-2" data-name="Elipse 12115" cx="50" cy="50" r="50" transform="translate(9 6)" fill="#00ce3b"/>
        </g>
      </g>
    </g>
    <g id="test_11518822" transform="translate(350.023 4464.825)">
      <g id="Grupo_1191015" data-name="Grupo 1191015" transform="translate(3.2 1)">
        <g id="Grupo_1191014" data-name="Grupo 1191014" transform="translate(0 0)">
          <path id="Trazado_1303660" data-name="Trazado 1303660" d="M64.8,49.56l-.367-.758c-.465-1.357-2.176-3.13-1.418-4.511,1.418-2.555.6-6.345-.941-8.766-3.252-5.343-10.123-7.25-15.991-5.929V7.871a3.548,3.548,0,0,0-3.545-3.545H34.351V3.213A2.223,2.223,0,0,0,32.126,1H17.162a2.223,2.223,0,0,0-2.225,2.213V4.325H6.745A3.548,3.548,0,0,0,3.2,7.871V59.793A3.551,3.551,0,0,0,6.745,63.35H42.554a3.543,3.543,0,0,0,3.5-3.044c2.763.868,5.11,1.6,7.017,2.2.452-.941.782-1.944,2.066-1.919,2.726.1,7.531,1.235,6.651-3.276-.061-.257.012-.44.257-.844a2.439,2.439,0,0,0,.416-1.846c.941-.465.77-1.712.672-2.567.868,0,2.445-.99,1.675-2.494ZM42.554,62.03H6.745A2.228,2.228,0,0,1,4.52,59.793V7.871A2.233,2.233,0,0,1,6.745,5.646h9.511V3.213a.9.9,0,0,1,.9-.892H32.138a.9.9,0,0,1,.9.892V5.646h9.512a2.225,2.225,0,0,1,2.225,2.225V29.938a15.351,15.351,0,0,0-3.105,1.308V8.751H7.626V58.913H41.6c.672.2,2.482.782,3.179,1a2.237,2.237,0,0,1-2.225,2.115ZM34.29,42.738c.134,5.355,6.749,9.267,5.184,14.866q-15.258,0-30.527-.012c0-15.453-.183-30.918,0-46.359.012-.746-.147-.917.452-1.161a7.045,7.045,0,0,1,2.091,0H40.354q0,10.471.012,20.93a1.888,1.888,0,0,1-.88,1.76C36.527,35.219,34.082,38.777,34.29,42.738ZM63.668,50.4c-.1.171-.232.281-.709.342-1.675.269-.978,1.687-1.1,2.677a1.423,1.423,0,0,0-.636.672,1.7,1.7,0,0,0-.061.868c.073.318-.1.513-.269.831a2.217,2.217,0,0,0-.391,1.871c.2.709.037,1.492-.7,1.675-2.36.624-6.039-1.308-7.445,1.565-2.042-.648-7.519-2.347-10.7-3.362-.208-.061-.6-.183-.795-.245,1.467-7.861-9.132-11.174-3.607-20.184,4.988-8,18.461-9.206,23.705-.88,1.3,2.054,2.054,5.343.892,7.409a3.138,3.138,0,0,0,.086,3.154c.575,1.1,1.113,2.237,1.675,3.35.1.183.073.232.049.257Z" transform="translate(-3.2 -1)"/>
        </g>
      </g>
      <g id="Grupo_1191017" data-name="Grupo 1191017" transform="translate(8.865 9.979)">
        <g id="Grupo_1191016" data-name="Grupo 1191016">
          <path id="Trazado_1303661" data-name="Trazado 1303661" d="M81.022,74.537H52.158a7.046,7.046,0,0,0-2.091,0c-.611.245-.452.416-.452,1.161-.183,15.441,0,30.906,0,46.359q15.258,0,30.527.012c1.577-5.6-5.049-9.5-5.184-14.866-.208-3.961,2.237-7.519,5.184-9.964a1.853,1.853,0,0,0,.88-1.76ZM57.684,114.612a1.064,1.064,0,0,1-1.064,1.064H52.659a1.075,1.075,0,0,1-1.076-1.064v-3.961a1.077,1.077,0,0,1,1.076-1.076H56.62a1.067,1.067,0,0,1,1.064,1.076Zm0-8.57a1.075,1.075,0,0,1-1.064,1.076H52.659a1.077,1.077,0,0,1-1.076-1.076v-3.961a1.067,1.067,0,0,1,1.076-1.064H56.62a1.064,1.064,0,0,1,1.064,1.064Zm15.368,8.741H60.642a.66.66,0,0,1,0-1.32H73.051A.66.66,0,0,1,73.051,114.783ZM59.982,111.14a.657.657,0,0,1,.66-.66h5.391a.66.66,0,0,1,0,1.32H60.642A.665.665,0,0,1,59.982,111.14Zm13.069-4.927H60.642a.66.66,0,0,1,0-1.32H73.051A.66.66,0,0,1,73.051,106.213Zm-13.069-3.631a.657.657,0,0,1,.66-.66h5.391a.66.66,0,1,1,0,1.32H60.642A.674.674,0,0,1,59.982,102.582Zm18.412-4.951H52.243v-1.32h1.345V87.594h4.487v8.7H59.9V83.254h4.475V96.311h1.822V78.583h4.475V96.311h1.822V85.039h4.487V96.311h1.418Z" transform="translate(-49.533 -74.444)" fill="#fed2a4"/>
        </g>
      </g>
      <g id="Grupo_1191019" data-name="Grupo 1191019" transform="translate(4.52 2.32)">
        <g id="Grupo_1191018" data-name="Grupo 1191018">
          <path id="Trazado_1303662" data-name="Trazado 1303662" d="M51.154,40.726v-22.5H17.105V68.392H51.08c.672.2,2.482.782,3.179,1a2.237,2.237,0,0,1-2.225,2.115H16.225A2.228,2.228,0,0,1,14,69.272V17.35a2.233,2.233,0,0,1,2.225-2.225h9.511V12.692a.9.9,0,0,1,.9-.892H41.618a.9.9,0,0,1,.9.892v2.433h9.511a2.225,2.225,0,0,1,2.225,2.225V39.418a15.352,15.352,0,0,0-3.105,1.308Z" transform="translate(-14 -11.8)" fill="#9473c5"/>
        </g>
      </g>
      <g id="Grupo_1191021" data-name="Grupo 1191021" transform="translate(35.664 30.534)">
        <g id="Grupo_1191020" data-name="Grupo 1191020">
          <path id="Trazado_1303663" data-name="Trazado 1303663" d="M296.706,262.186c-.55-1.113-1.088-2.25-1.675-3.35a3.138,3.138,0,0,1-.086-3.154c1.161-2.078.4-5.367-.892-7.409-5.245-8.313-18.717-7.115-23.705.88-5.526,9.035,5.074,12.323,3.607,20.184.2.061.587.183.795.245,3.179,1,8.656,2.714,10.7,3.362,1.406-2.861,5.086-.941,7.445-1.565.734-.183.88-.966.7-1.675a2.217,2.217,0,0,1,.391-1.871c.171-.318.342-.513.269-.831a1.7,1.7,0,0,1,.061-.868,1.547,1.547,0,0,1,.636-.672,9.258,9.258,0,0,0-.061-1.394,1.191,1.191,0,0,1,1.161-1.3c.477-.061.623-.171.709-.342C296.767,262.418,296.792,262.369,296.706,262.186Zm-15.954-5.159-6.687.306a.677.677,0,0,1-.7-.636l-.086-1.919a.635.635,0,0,1,.183-.477c.245-.306.746-.134.99-.465a.772.772,0,0,0-.049-1.088c-.293-.306-.746-.073-1.027-.379a.643.643,0,0,1-.22-.452L273.074,250a.658.658,0,0,1,.636-.685l1.357-.061a2.1,2.1,0,0,1,3.961-.183l1.369-.061a.657.657,0,0,1,.685.636l.086,1.919a.648.648,0,0,1-.624.685.772.772,0,0,0-.489,1.333.764.764,0,0,0,.55.2.65.65,0,0,1,.685.636l.086,1.919a.644.644,0,0,1-.624.7Zm12.617-3.668-1.406,1.32a.646.646,0,0,1-.929-.037.77.77,0,1,0-1.125,1.051.668.668,0,0,1-.024.929l-1.406,1.32a.672.672,0,0,1-.941-.037l-.929-.99a2.107,2.107,0,0,1-2.714-2.9l-.929-1a.657.657,0,0,1,.024-.929l1.406-1.32a.646.646,0,0,1,.929.037.783.783,0,0,0,1.088.037.771.771,0,0,0,.037-1.088.672.672,0,0,1,.037-.941l1.406-1.308a.657.657,0,0,1,.929.024l4.585,4.89A.7.7,0,0,1,293.369,253.359Z" transform="translate(-268.739 -242.573)" fill="#feddcc"/>
        </g>
      </g>
      <g id="Grupo_1191023" data-name="Grupo 1191023" transform="translate(11.575 14.118)">
        <g id="Grupo_1191022" data-name="Grupo 1191022">
          <path id="Trazado_1303664" data-name="Trazado 1303664" d="M96.432,126.027V114.755H91.946v11.272H90.124V108.3H85.649v17.727H83.828V112.97H79.353v13.057H77.532V117.31H73.045v8.7H71.7v1.32H97.838v-1.32H96.432Zm-20.221-.318H74.365v-7.079h1.846Zm6.3,0H80.674V114.278h1.834Zm6.3,0H86.97V109.62H88.8Zm6.308,0H93.266v-9.646h1.846Z" transform="translate(-71.7 -108.3)"/>
        </g>
      </g>
      <g id="Grupo_1191025" data-name="Grupo 1191025" transform="translate(14.24 24.449)">
        <g id="Grupo_1191024" data-name="Grupo 1191024">
          <path id="Trazado_1303665" data-name="Trazado 1303665" d="M93.5,192.8h1.846v7.079H93.5Z" transform="translate(-93.5 -192.8)" fill="#ee8dc5"/>
        </g>
      </g>
      <g id="Grupo_1191027" data-name="Grupo 1191027" transform="translate(20.548 20.109)">
        <g id="Grupo_1191026" data-name="Grupo 1191026">
          <path id="Trazado_1303666" data-name="Trazado 1303666" d="M145.1,157.3h1.834v11.431H145.1Z" transform="translate(-145.1 -157.3)" fill="#ee8dc5"/>
        </g>
      </g>
      <g id="Grupo_1191029" data-name="Grupo 1191029" transform="translate(33.14 21.894)">
        <g id="Grupo_1191028" data-name="Grupo 1191028">
          <path id="Trazado_1303667" data-name="Trazado 1303667" d="M248.1,171.9h1.846v9.646H248.1Z" transform="translate(-248.1 -171.9)" fill="#ee8dc5"/>
        </g>
      </g>
      <g id="Grupo_1191031" data-name="Grupo 1191031" transform="translate(26.844 15.438)">
        <g id="Grupo_1191030" data-name="Grupo 1191030">
          <path id="Trazado_1303668" data-name="Trazado 1303668" d="M196.6,119.1h1.834v16.089H196.6Z" transform="translate(-196.6 -119.1)" fill="#ee8dc5"/>
        </g>
      </g>
      <g id="Grupo_1191033" data-name="Grupo 1191033" transform="translate(10.914 36.552)">
        <g id="Grupo_1191032" data-name="Grupo 1191032" transform="translate(0)">
          <path id="Trazado_1303669" data-name="Trazado 1303669" d="M71.337,291.8H67.376a1.075,1.075,0,0,0-1.076,1.064v3.961a1.077,1.077,0,0,0,1.076,1.076h3.961a1.067,1.067,0,0,0,1.064-1.076v-3.961A1.072,1.072,0,0,0,71.337,291.8Zm-.257,4.768H67.62V293.12h3.448v3.448Z" transform="translate(-66.3 -291.8)"/>
        </g>
      </g>
      <g id="Grupo_1191035" data-name="Grupo 1191035" transform="translate(12.235 37.872)">
        <g id="Grupo_1191034" data-name="Grupo 1191034" transform="translate(0)">
          <path id="Trazado_1303670" data-name="Trazado 1303670" d="M77.1,302.6h3.448v3.448H77.1Z" transform="translate(-77.1 -302.6)" fill="#ee8dc5"/>
        </g>
      </g>
      <g id="Grupo_1191037" data-name="Grupo 1191037" transform="translate(19.313 37.457)">
        <g id="Grupo_1191036" data-name="Grupo 1191036">
          <path id="Trazado_1303671" data-name="Trazado 1303671" d="M141.712,299.86a.657.657,0,0,1-.66.66H135.66a.66.66,0,0,1,0-1.32h5.391A.65.65,0,0,1,141.712,299.86Z" transform="translate(-135 -299.2)"/>
        </g>
      </g>
      <g id="Grupo_1191039" data-name="Grupo 1191039" transform="translate(19.313 40.428)">
        <g id="Grupo_1191038" data-name="Grupo 1191038">
          <path id="Trazado_1303672" data-name="Trazado 1303672" d="M148.729,324.16a.657.657,0,0,1-.66.66H135.66a.66.66,0,1,1,0-1.32h12.409A.657.657,0,0,1,148.729,324.16Z" transform="translate(-135 -323.5)"/>
        </g>
      </g>
      <g id="Grupo_1191041" data-name="Grupo 1191041" transform="translate(10.914 45.122)">
        <g id="Grupo_1191040" data-name="Grupo 1191040" transform="translate(0)">
          <path id="Trazado_1303673" data-name="Trazado 1303673" d="M71.337,361.9H67.376a1.077,1.077,0,0,0-1.076,1.076v3.949a1.067,1.067,0,0,0,1.076,1.064h3.961a1.064,1.064,0,0,0,1.064-1.064v-3.961A1.064,1.064,0,0,0,71.337,361.9Zm-.257,4.768H67.62V363.22h3.448v3.448Z" transform="translate(-66.3 -361.9)"/>
        </g>
      </g>
      <g id="Grupo_1191043" data-name="Grupo 1191043" transform="translate(12.235 46.442)">
        <g id="Grupo_1191042" data-name="Grupo 1191042" transform="translate(0)">
          <path id="Trazado_1303674" data-name="Trazado 1303674" d="M77.1,372.7h3.448v3.448H77.1Z" transform="translate(-77.1 -372.7)" fill="#ee8dc5"/>
        </g>
      </g>
      <g id="Grupo_1191045" data-name="Grupo 1191045" transform="translate(19.313 46.015)">
        <g id="Grupo_1191044" data-name="Grupo 1191044">
          <path id="Trazado_1303675" data-name="Trazado 1303675" d="M141.712,369.86a.657.657,0,0,1-.66.66H135.66a.66.66,0,0,1,0-1.32h5.391A.657.657,0,0,1,141.712,369.86Z" transform="translate(-135 -369.2)"/>
        </g>
      </g>
      <g id="Grupo_1191047" data-name="Grupo 1191047" transform="translate(19.313 48.985)">
        <g id="Grupo_1191046" data-name="Grupo 1191046">
          <path id="Trazado_1303676" data-name="Trazado 1303676" d="M148.729,394.16a.657.657,0,0,1-.66.66H135.66a.66.66,0,1,1,0-1.32h12.409A.665.665,0,0,1,148.729,394.16Z" transform="translate(-135 -393.5)"/>
        </g>
      </g>
      <g id="Grupo_1191049" data-name="Grupo 1191049" transform="translate(39.999 35.723)">
        <g id="Grupo_1191048" data-name="Grupo 1191048">
          <path id="Trazado_1303677" data-name="Trazado 1303677" d="M312.413,291.679a.658.658,0,0,0-.685-.636.765.765,0,1,1-.061-1.528.64.64,0,0,0,.624-.685l-.086-1.919a.665.665,0,0,0-.685-.636l-1.369.061a2.1,2.1,0,0,0-3.961.183l-1.357.061a.658.658,0,0,0-.636.685l.086,1.919a.673.673,0,0,0,.685.636.765.765,0,0,1,.6,1.284.861.861,0,0,1-.538.257.658.658,0,0,0-.636.685l.086,1.919a.669.669,0,0,0,.66.636c.024.012,6.687-.306,6.724-.306a.64.64,0,0,0,.624-.685Zm-6.626,1.553-.037-.7a2.1,2.1,0,0,0-.183-3.961l-.037-.7,1.259-.061a.648.648,0,0,0,.624-.685.765.765,0,0,1,1.528-.061.643.643,0,0,0,.7.624l1.259-.061.037.709a2.1,2.1,0,0,0,.171,3.961l.037.7Z" transform="translate(-304.197 -285.018)"/>
        </g>
      </g>
      <g id="Grupo_1191051" data-name="Grupo 1191051" transform="translate(41.332 37.043)">
        <g id="Grupo_1191050" data-name="Grupo 1191050">
          <path id="Trazado_1303678" data-name="Trazado 1303678" d="M320.724,302.48l-5.367.232-.037-.7a2.1,2.1,0,0,0-.183-3.961l-.037-.7,1.259-.061a.648.648,0,0,0,.623-.685.765.765,0,0,1,1.528-.061.643.643,0,0,0,.7.624l1.259-.061.037.709a2.1,2.1,0,0,0,.171,3.961Z" transform="translate(-315.1 -295.819)" fill="#ee8dc5"/>
        </g>
      </g>
      <g id="Grupo_1191053" data-name="Grupo 1191053" transform="translate(49.692 35.291)">
        <g id="Grupo_1191052" data-name="Grupo 1191052">
          <path id="Trazado_1303679" data-name="Trazado 1303679" d="M394.111,286.585l-4.585-4.89a.647.647,0,0,0-.929-.025l-1.406,1.308a.672.672,0,0,0-.037.941.761.761,0,0,1-.037,1.088.772.772,0,0,1-1.088-.037.658.658,0,0,0-.929-.037l-1.406,1.32a.646.646,0,0,0-.024.929l.929,1a2.107,2.107,0,0,0,2.714,2.9l.929.99a.672.672,0,0,0,.941.037l1.406-1.32a.668.668,0,0,0,.024-.929.77.77,0,0,1,1.125-1.051.658.658,0,0,0,.929.037l1.406-1.32A.672.672,0,0,0,394.111,286.585Zm-1.919.9a2.1,2.1,0,0,0-2.9,2.714l-.514.477c-.342-.306-.917-1.186-1.345-1.125a.649.649,0,0,0-.452.183.766.766,0,0,1-1.039-1.125.646.646,0,0,0,.025-.929l-.856-.917.513-.477a2.1,2.1,0,0,0,2.9-2.714l.513-.477,3.68,3.924Z" transform="translate(-383.486 -281.486)"/>
        </g>
      </g>
      <g id="Grupo_1191055" data-name="Grupo 1191055" transform="translate(51.308 36.907)">
        <g id="Grupo_1191054" data-name="Grupo 1191054">
          <path id="Trazado_1303680" data-name="Trazado 1303680" d="M404.292,298.612l-.513.477a2.1,2.1,0,0,0-2.9,2.714l-.513.477c-.342-.306-.917-1.186-1.345-1.125a.649.649,0,0,0-.452.183.766.766,0,0,1-1.039-1.125.646.646,0,0,0,.024-.929l-.856-.917.513-.477a2.1,2.1,0,0,0,2.9-2.714l.513-.477Z" transform="translate(-396.7 -294.7)" fill="#9473c5"/>
        </g>
      </g>
    </g>
  </g>
</svg>
