<svg xmlns="http://www.w3.org/2000/svg" xmlns:xlink="http://www.w3.org/1999/xlink" width="118" height="118" viewBox="0 0 118 118">
  <defs>
    <filter id="Elipse_12115" x="0" y="0" width="118" height="118" filterUnits="userSpaceOnUse">
      <feOffset dy="3" input="SourceAlpha"/>
      <feGaussianBlur stdDeviation="3" result="blur"/>
      <feFlood flood-opacity="0.161"/>
      <feComposite operator="in" in2="blur"/>
      <feComposite in="SourceGraphic"/>
    </filter>
  </defs>
  <g id="Grupo_1190249" data-name="Grupo 1190249" transform="translate(-794.781 -2538)">
    <g id="Grupo_1181947" data-name="Grupo 1181947" transform="translate(-5 -5)">
      <g transform="matrix(1, 0, 0, 1, 799.78, 2543)" filter="url(#Elipse_12115)">
        <g id="Elipse_12115-2" data-name="Elipse 12115" transform="translate(9 6)" fill="#fbe4a3" stroke="#f6bc1c" stroke-width="2">
          <circle cx="50" cy="50" r="50" stroke="none"/>
          <circle cx="50" cy="50" r="49" fill="none"/>
        </g>
      </g>
    </g>
    <g id="Date_11" data-name="Date 11" transform="translate(824.911 2565.129)">
      <rect id="Rect치ngulo_411779" data-name="Rect치ngulo 411779" width="50.788" height="48.834" rx="1" transform="translate(3.477 5.43)" fill="#f2f2f2"/>
      <rect id="Rect치ngulo_411780" data-name="Rect치ngulo 411780" width="35.161" height="23.44" rx="1" transform="translate(11.29 26.917)" fill="#71d3c0"/>
      <path id="Trazado_1303592" data-name="Trazado 1303592" d="M4.953,4H51.834a1.953,1.953,0,0,1,1.953,1.953v11.72H3V5.953A1.953,1.953,0,0,1,4.953,4Z" transform="translate(0.477 1.43)" fill="#15b2cc"/>
      <path id="Trazado_1303593" data-name="Trazado 1303593" d="M3,11H53.788v1.953H3Z" transform="translate(0.477 8.104)" fill="#999"/>
      <g id="Grupo_1191001" data-name="Grupo 1191001" transform="translate(11.29 26.917)">
        <path id="Trazado_1303594" data-name="Trazado 1303594" d="M8.953,15V38.44A1.953,1.953,0,0,1,7,36.487V16.953A1.953,1.953,0,0,1,8.953,15Z" transform="translate(-7 -15)" fill="#49897d"/>
        <path id="Trazado_1303595" data-name="Trazado 1303595" d="M8.953,15H40.207a1.953,1.953,0,0,1,1.953,1.953H7A1.953,1.953,0,0,1,8.953,15Z" transform="translate(-7 -15)" fill="#49897d"/>
        <path id="Trazado_1303596" data-name="Trazado 1303596" d="M24,15a1.953,1.953,0,0,1,1.953,1.953V36.487A1.953,1.953,0,0,1,24,38.44Z" transform="translate(9.207 -15)" fill="#49897d"/>
        <path id="Trazado_1303597" data-name="Trazado 1303597" d="M7,26H42.161a1.953,1.953,0,0,1-1.953,1.953H8.953A1.953,1.953,0,0,1,7,26Z" transform="translate(-7 -4.513)" fill="#49897d"/>
      </g>
      <path id="Trazado_1303598" data-name="Trazado 1303598" d="M15.43,16.5H13.477a.977.977,0,1,0,0,1.953h.977V33.1a.977.977,0,0,0,1.953,0V17.477A.977.977,0,0,0,15.43,16.5Z" transform="translate(9.534 13.347)"/>
      <path id="Trazado_1303599" data-name="Trazado 1303599" d="M20.43,16.5H18.477a.977.977,0,1,0,0,1.953h.977V33.1a.977.977,0,0,0,1.953,0V17.477A.977.977,0,0,0,20.43,16.5Z" transform="translate(14.301 13.347)"/>
      <path id="Trazado_1303600" data-name="Trazado 1303600" d="M40.684,14.5H9.43A2.93,2.93,0,0,0,6.5,17.43V36.964a2.93,2.93,0,0,0,2.93,2.93H40.684a2.93,2.93,0,0,0,2.93-2.93V17.43A2.93,2.93,0,0,0,40.684,14.5Zm.977,22.464a.977.977,0,0,1-.977.977H9.43a.977.977,0,0,1-.977-.977V17.43a.977.977,0,0,1,.977-.977H40.684a.977.977,0,0,1,.977.977Z" transform="translate(3.813 11.44)"/>
      <path id="Trazado_1303601" data-name="Trazado 1303601" d="M14.459,12.005A3.028,3.028,0,1,0,11.47,8.978a3.028,3.028,0,0,0,2.989,3.028Zm0-4a1.074,1.074,0,1,1-1.074,1.074A1.074,1.074,0,0,1,14.459,8Z" transform="translate(8.552 3.289)"/>
      <path id="Trazado_1303602" data-name="Trazado 1303602" d="M20.468,12.005A3.028,3.028,0,1,0,17.46,8.978a3.028,3.028,0,0,0,3.008,3.028Zm0-4a1.074,1.074,0,1,1-1.074,1.074A1.074,1.074,0,0,1,20.468,8Z" transform="translate(14.262 3.289)"/>
      <path id="Trazado_1303603" data-name="Trazado 1303603" d="M52.311,5.43H47.427V3.477a.977.977,0,1,0-1.953,0V5.43H12.267V3.477a.977.977,0,1,0-1.953,0V5.43H5.43A2.93,2.93,0,0,0,2.5,8.36V52.311a2.93,2.93,0,0,0,2.93,2.93H52.311a2.93,2.93,0,0,0,2.93-2.93V8.36a2.93,2.93,0,0,0-2.93-2.93ZM5.43,7.383h4.883V9.337h0a3.028,3.028,0,1,0,1.953,0h0V7.383H45.474V9.337h0a3.028,3.028,0,1,0,1.953,0h0V7.383h4.883a.977.977,0,0,1,.977.977v8.79H4.453V8.36A.977.977,0,0,1,5.43,7.383Zm5.86,3.907a1.074,1.074,0,1,1-1.074,1.074A1.074,1.074,0,0,1,11.29,11.29Zm35.161,0a1.074,1.074,0,1,1-1.074,1.074,1.074,1.074,0,0,1,1.074-1.074Zm5.86,42H5.43a.977.977,0,0,1-.977-.977V19.1H53.288V52.311A.977.977,0,0,1,52.311,53.288Z" transform="translate(0)"/>
    </g>
  </g>
</svg>
