<svg xmlns="http://www.w3.org/2000/svg" xmlns:xlink="http://www.w3.org/1999/xlink" width="83" height="83" viewBox="0 0 83 83">
  <defs>
    <filter id="Elipse_12115" x="0" y="0" width="83" height="83" filterUnits="userSpaceOnUse">
      <feOffset dy="3" input="SourceAlpha"/>
      <feGaussianBlur stdDeviation="3" result="blur"/>
      <feFlood flood-opacity="0.161"/>
      <feComposite operator="in" in2="blur"/>
      <feComposite in="SourceGraphic"/>
    </filter>
  </defs>
  <g id="Grupo_1189658" data-name="Grupo 1189658" transform="translate(-794.781 -2537.662)">
    <g id="Grupo_1181947" data-name="Grupo 1181947" transform="translate(803.781 2543.662)">
      <g transform="matrix(1, 0, 0, 1, -9, -6)" filter="url(#Elipse_12115)">
        <g id="Elipse_12115-2" data-name="Elipse 12115" transform="translate(9 6)" fill="#d0d1dc" stroke="#1a1f53" stroke-width="2">
          <circle cx="32.5" cy="32.5" r="32.5" stroke="none"/>
          <circle cx="32.5" cy="32.5" r="31.5" fill="none"/>
        </g>
      </g>
    </g>
    <g id="reservation_3445265" transform="translate(816.033 2557.297)">
      <path id="Trazado_1267248" data-name="Trazado 1267248" d="M41.137,32.873H2V14.609A2.609,2.609,0,0,1,4.609,12H38.528a2.609,2.609,0,0,1,2.609,2.609Z" transform="translate(-1.348 -4.825)" fill="#e8e8e8"/>
      <path id="Trazado_1267249" data-name="Trazado 1267249" d="M39.005,10V28.264a1.3,1.3,0,0,1-1.3,1.3H10.3a1.3,1.3,0,0,1-1.3-1.3V10" transform="translate(-3.782 -4.129)" fill="#c8cded"/>
      <path id="Trazado_1267250" data-name="Trazado 1267250" d="M13,20H26.046V30.437H13Z" transform="translate(-5.173 -7.606)" fill="#f2f2f2"/>
      <path id="Trazado_1267251" data-name="Trazado 1267251" d="M13,14h6.523v3.914H13Z" transform="translate(-5.173 -5.52)" fill="#559b2d"/>
      <path id="Trazado_1267252" data-name="Trazado 1267252" d="M23,14h6.523v3.914H23Z" transform="translate(-8.65 -5.52)" fill="#559b2d"/>
      <path id="Trazado_1267253" data-name="Trazado 1267253" d="M34.132,55.218l-1.5-1.5a1.575,1.575,0,0,1,0-2.227l1.5-1.5H25l1.5,1.5a1.575,1.575,0,0,1,0,2.227l-1.5,1.5Z" transform="translate(-9.345 -18.038)" fill="#474747"/>
      <path id="Trazado_1267254" data-name="Trazado 1267254" d="M41.137,44v1.3a2.609,2.609,0,0,1-2.609,2.609H4.609A2.609,2.609,0,0,1,2,45.3V44Z" transform="translate(-1.348 -15.952)" fill="#686868"/>
      <path id="Trazado_1267255" data-name="Trazado 1267255" d="M39.005,7.218H9V3.3A1.3,1.3,0,0,1,10.3,2H37.7a1.3,1.3,0,0,1,1.3,1.3Z" transform="translate(-3.782 -1.348)" fill="#3b5892"/>
      <path id="Trazado_1267256" data-name="Trazado 1267256" d="M22.3,58H34.046a1.3,1.3,0,0,1,1.3,1.3v1.3H21V59.3A1.3,1.3,0,0,1,22.3,58Z" transform="translate(-7.954 -20.819)" fill="#686868"/>
      <g id="Grupo_1189657" data-name="Grupo 1189657" transform="translate(7.175 2.609)">
        <path id="Trazado_1267257" data-name="Trazado 1267257" d="M12,5h1.3V6.3H12Z" transform="translate(-12 -5)" fill="#213d68"/>
        <path id="Trazado_1267258" data-name="Trazado 1267258" d="M16,5h1.3V6.3H16Z" transform="translate(-13.391 -5)" fill="#213d68"/>
        <path id="Trazado_1267259" data-name="Trazado 1267259" d="M20,5h1.3V6.3H20Z" transform="translate(-14.782 -5)" fill="#213d68"/>
        <path id="Trazado_1267260" data-name="Trazado 1267260" d="M24,5h1.3V6.3H24Z" transform="translate(-16.173 -5)" fill="#213d68"/>
        <path id="Trazado_1267261" data-name="Trazado 1267261" d="M42,5h6.523V6.3H42Z" transform="translate(-22.431 -5)" fill="#213d68"/>
        <path id="Trazado_1267262" data-name="Trazado 1267262" d="M30,5h6.523V6.3H30Z" transform="translate(-18.259 -5)" fill="#213d68"/>
      </g>
      <path id="Trazado_1267263" data-name="Trazado 1267263" d="M26.045,21.175v-1.3H20.175V14h-1.3v5.871H13v1.3h5.871V22.48H13v1.3h5.871v1.305H13v1.3h5.871v1.956h1.3V26.393h5.871v-1.3H20.175V23.784h5.871v-1.3H20.175V21.175Z" transform="translate(-5.173 -5.52)" fill="#6bc13b"/>
      <path id="Trazado_1267264" data-name="Trazado 1267264" d="M37,19h9.132v2.609H37Z" transform="translate(-13.518 -7.259)" fill="#3b5892"/>
      <path id="Trazado_1267265" data-name="Trazado 1267265" d="M37,17.261V14h2.609v3.261" transform="translate(-13.518 -5.52)" fill="#172e50"/>
      <path id="Trazado_1267266" data-name="Trazado 1267266" d="M40,27h5.218v2.609H40Z" transform="translate(-14.561 -10.04)" fill="#559b2d"/>
      <path id="Trazado_1267267" data-name="Trazado 1267267" d="M36,34H46.437v1.3H36Z" transform="translate(-13.17 -12.474)" fill="#4c6cb5"/>
      <path id="Trazado_1267268" data-name="Trazado 1267268" d="M38.181,7.523h-1.3V2.957A1.957,1.957,0,0,0,34.919,1H7.523A1.957,1.957,0,0,0,5.566,2.957V7.523h-1.3A3.265,3.265,0,0,0,1,10.784V30.353a3.265,3.265,0,0,0,3.261,3.261H16.385l1.3,1.3a.913.913,0,0,1,.27.652.927.927,0,0,1-.271.652l-1.3,1.3H15.35a1.957,1.957,0,0,0-1.957,1.957v1.3a.652.652,0,0,0,.652.652H28.4a.652.652,0,0,0,.652-.652v-1.3a1.957,1.957,0,0,0-1.957-1.957H26.057l-1.3-1.3a.923.923,0,0,1,0-1.3l1.3-1.3H38.181a3.265,3.265,0,0,0,3.261-3.261V10.784A3.265,3.265,0,0,0,38.181,7.523Zm-31.31,0h28.7V25.135a.652.652,0,0,1-.652.652H7.523a.652.652,0,0,1-.652-.652ZM7.523,2.3h27.4a.652.652,0,0,1,.652.652V6.218H6.871V2.957A.652.652,0,0,1,7.523,2.3ZM4.261,8.827h1.3V25.135a1.957,1.957,0,0,0,1.957,1.957h27.4a1.957,1.957,0,0,0,1.957-1.957V8.827h1.3a1.957,1.957,0,0,1,1.957,1.957V28.4H2.3V10.784A1.957,1.957,0,0,1,4.261,8.827ZM27.744,39.485v.652H14.7v-.652a.652.652,0,0,1,.652-.652H27.092A.652.652,0,0,1,27.744,39.485ZM23.83,37.147l.381.382H18.23l.382-.382a2.228,2.228,0,0,0,0-3.15l-.382-.382h5.982L23.83,34a2.228,2.228,0,0,0,0,3.151Zm14.35-4.837H4.261A1.957,1.957,0,0,1,2.3,30.353V29.7H40.137v.652A1.957,1.957,0,0,1,38.181,32.31Z" transform="translate(-1 -1)"/>
      <path id="Trazado_1267269" data-name="Trazado 1267269" d="M12,5h1.3V6.3H12Z" transform="translate(-4.825 -2.391)"/>
      <path id="Trazado_1267270" data-name="Trazado 1267270" d="M16,5h1.3V6.3H16Z" transform="translate(-6.216 -2.391)"/>
      <path id="Trazado_1267271" data-name="Trazado 1267271" d="M20,5h1.3V6.3H20Z" transform="translate(-7.606 -2.391)"/>
      <path id="Trazado_1267272" data-name="Trazado 1267272" d="M24,5h1.3V6.3H24Z" transform="translate(-8.997 -2.391)"/>
      <path id="Trazado_1267273" data-name="Trazado 1267273" d="M42,5h6.523V6.3H42Z" transform="translate(-15.256 -2.391)"/>
      <path id="Trazado_1267274" data-name="Trazado 1267274" d="M30,5h6.523V6.3H30Z" transform="translate(-11.084 -2.391)"/>
      <path id="Trazado_1267275" data-name="Trazado 1267275" d="M12.652,28.655H25.7A.652.652,0,0,0,26.35,28V13.652A.652.652,0,0,0,25.7,13H12.652a.652.652,0,0,0-.652.652V28A.652.652,0,0,0,12.652,28.655Zm.652-2.609h5.218v1.3H13.3Zm6.523-3.914v-1.3h5.218v1.3Zm5.218,1.3v1.3H19.827v-1.3Zm-5.218-3.914v-1.3h5.218v1.3Zm-1.3,0H13.3v-1.3h5.218Zm0,1.3v1.3H13.3v-1.3Zm0,2.609v1.3H13.3v-1.3Zm1.3,3.914v-1.3h5.218v1.3Zm5.218-10.437H19.827V14.3h5.218ZM18.523,14.3v2.609H13.3V14.3Z" transform="translate(-4.825 -5.173)"/>
      <path id="Trazado_1267276" data-name="Trazado 1267276" d="M36,19.523a.652.652,0,0,0,.652.652h9.132a.652.652,0,0,0,.652-.652V16.914a.652.652,0,0,0-.652-.652H39.914V13.652A.652.652,0,0,0,39.261,13H36.652a.652.652,0,0,0-.652.652Zm9.132-.652H37.3v-1.3h7.827ZM38.609,14.3v1.957H37.3V14.3Z" transform="translate(-13.17 -5.173)"/>
      <path id="Trazado_1267277" data-name="Trazado 1267277" d="M39.652,26a.652.652,0,0,0-.652.652v2.609a.652.652,0,0,0,.652.652h5.218a.652.652,0,0,0,.652-.652V26.652A.652.652,0,0,0,44.871,26Zm4.566,2.609H40.3V27.3h3.914Z" transform="translate(-14.213 -9.693)"/>
      <path id="Trazado_1267278" data-name="Trazado 1267278" d="M36,34H46.437v1.3H36Z" transform="translate(-13.17 -12.474)"/>
    </g>
  </g>
</svg>
