<svg xmlns="http://www.w3.org/2000/svg" xmlns:xlink="http://www.w3.org/1999/xlink" width="118" height="118" viewBox="0 0 118 118">
  <defs>
    <filter id="Elipse_12115" x="0" y="0" width="118" height="118" filterUnits="userSpaceOnUse">
      <feOffset dy="3" input="SourceAlpha"/>
      <feGaussianBlur stdDeviation="3" result="blur"/>
      <feFlood flood-opacity="0.161"/>
      <feComposite operator="in" in2="blur"/>
      <feComposite in="SourceGraphic"/>
    </filter>
  </defs>
  <g id="Grupo_1190250" data-name="Grupo 1190250" transform="translate(-794.781 -2538)">
    <g id="Grupo_1181947" data-name="Grupo 1181947" transform="translate(-5 -5)">
      <g transform="matrix(1, 0, 0, 1, 799.78, 2543)" filter="url(#Elipse_12115)">
        <g id="Elipse_12115-2" data-name="Elipse 12115" transform="translate(9 6)" fill="#fbe4a3" stroke="#f6bc1c" stroke-width="2">
          <circle cx="50" cy="50" r="50" stroke="none"/>
          <circle cx="50" cy="50" r="49" fill="none"/>
        </g>
      </g>
    </g>
    <g id="Grupo_1191013" data-name="Grupo 1191013">
      <path id="Trazado_1303659" data-name="Trazado 1303659" d="M841.118,2567.59l-11.139,10.084v42.966h43.047v-36.215l4.108-.818v-10.291l-4.108.251v-6.687Z" fill="#fff"/>
      <g id="folder_11580860" transform="translate(822.096 2562)">
        <path id="Trazado_1303652" data-name="Trazado 1303652" d="M24.61,42.31h1.28a.52.52,0,0,1,.52.53v1.25a.52.52,0,0,1-.52.52H24.61a.52.52,0,0,1-.52-.52V42.84a.52.52,0,0,1,.52-.53Z"/>
        <path id="Trazado_1303653" data-name="Trazado 1303653" d="M28.7,42.31H30a.51.51,0,0,1,.51.52V44.1a.51.51,0,0,1-.51.51H28.7a.51.51,0,0,1-.51-.51V42.83a.51.51,0,0,1,.51-.52Z"/>
        <path id="Trazado_1303654" data-name="Trazado 1303654" d="M32.81,42.31h1.3a.51.51,0,0,1,.51.52V44.1a.51.51,0,0,1-.51.51h-1.3a.51.51,0,0,1-.51-.51V42.83a.52.52,0,0,1,.51-.52Z"/>
        <path id="Trazado_1303655" data-name="Trazado 1303655" d="M19.46,40.59a3.17,3.17,0,0,1,.93.83,2.86,2.86,0,0,1,.47,1.16A10.08,10.08,0,0,1,21,44.4v1.22a1.86,1.86,0,0,0,.15.6.7.7,0,0,0,.27.27,3.18,3.18,0,0,0,.55.12.79.79,0,0,1,.53.31,1.1,1.1,0,0,1,.21.7c0,.68-.41,1-1.24,1a2.9,2.9,0,0,1-1.36-.31,2.34,2.34,0,0,1-.92-.9,2.8,2.8,0,0,1-.34-1.34c0-.85,0-1.53-.05-2a6.77,6.77,0,0,0-.07-1,1.92,1.92,0,0,0-.38-.85,2.91,2.91,0,0,0-.64-.53,2.51,2.51,0,0,1-.57-.44,1.2,1.2,0,0,1,.32-1.56,4.62,4.62,0,0,0,.86-.64,1.43,1.43,0,0,0,.36-.68,4.08,4.08,0,0,0,.12-.9c0-.33,0-1.11.05-2.36a2.54,2.54,0,0,1,.74-1.85,2.58,2.58,0,0,1,1.88-.69c.83,0,1.24.34,1.24,1a1.09,1.09,0,0,1-.21.71.76.76,0,0,1-.53.3,2,2,0,0,0-.68.2.75.75,0,0,0-.25.52c0,.26-.06.76-.08,1.49a11.74,11.74,0,0,1-.13,1.78,2.78,2.78,0,0,1-.44,1.17A3.05,3.05,0,0,1,19.46,40.59Z"/>
        <path id="Trazado_1303656" data-name="Trazado 1303656" d="M38.29,39.71a2.92,2.92,0,0,1-.45-1.17,13.2,13.2,0,0,1-.13-1.78,13.48,13.48,0,0,0-.07-1.49.75.75,0,0,0-.25-.52,2,2,0,0,0-.68-.2.74.74,0,0,1-.53-.3,1.09,1.09,0,0,1-.21-.71c0-.66.41-1,1.23-1a2.59,2.59,0,0,1,1.89.69,2.53,2.53,0,0,1,.73,1.85v2.36a4.75,4.75,0,0,0,.13.9,1.43,1.43,0,0,0,.36.68,4.48,4.48,0,0,0,.85.64,1.17,1.17,0,0,1,.32,1.56,2.41,2.41,0,0,1-.56.44,3,3,0,0,0-.65.53A1.92,1.92,0,0,0,40,43a7.86,7.86,0,0,0-.08,1c0,.51,0,1.19,0,2a2.69,2.69,0,0,1-.33,1.34,2.37,2.37,0,0,1-.93.9,2.87,2.87,0,0,1-1.36.31c-.82,0-1.23-.33-1.23-1a1.1,1.1,0,0,1,.21-.7.79.79,0,0,1,.53-.31,2.81,2.81,0,0,0,.54-.12.59.59,0,0,0,.27-.27,1.61,1.61,0,0,0,.16-.6V44.33a10,10,0,0,1,.14-1.82,2.72,2.72,0,0,1,.47-1.16,3.17,3.17,0,0,1,.93-.83,3.05,3.05,0,0,1-1.03-.81Z"/>
        <path id="Trazado_1303657" data-name="Trazado 1303657" d="M42.76,14.5a1.71,1.71,0,0,0-1.35.55,2.11,2.11,0,0,0-.51,1.49A2.1,2.1,0,0,0,41.41,18a1.72,1.72,0,0,0,1.35.56A1.75,1.75,0,0,0,44.11,18a2.16,2.16,0,0,0,.5-1.48,2.16,2.16,0,0,0-.5-1.49A1.74,1.74,0,0,0,42.76,14.5Z"/>
        <path id="Trazado_1303658" data-name="Trazado 1303658" d="M56.37,9.64H52V4H18.33L7,15.59V60H52V23.64h4.37ZM17.75,7.45v5.22C17.75,14,16.25,15,15,15H10.38ZM50,58H9V17h6c2.25,0,4.75-1.78,4.75-4.33V6H50V9.64H24.37v14H50ZM46.35,16.54a3.59,3.59,0,0,1-.48,1.85,3.43,3.43,0,0,1-1.3,1.29,3.79,3.79,0,0,1-3.62,0,3.45,3.45,0,0,1-1.31-1.29,3.74,3.74,0,0,1,0-3.7A3.43,3.43,0,0,1,41,13.41,3.61,3.61,0,0,1,42.76,13a3.65,3.65,0,0,1,1.82.46,3.4,3.4,0,0,1,1.3,1.28,3.69,3.69,0,0,1,.47,1.8Zm-9.92,1.14A1.45,1.45,0,0,0,36,17.4a7.38,7.38,0,0,0-.73-.25,8.23,8.23,0,0,1-1.11-.42,2.08,2.08,0,0,1-.74-.62A1.76,1.76,0,0,1,33.11,15a1.86,1.86,0,0,1,.71-1.54A2.91,2.91,0,0,1,35.67,13a3,3,0,0,1,1.87.55,2,2,0,0,1,.76,1.55H36.45a.73.73,0,0,0-.25-.54.87.87,0,0,0-.59-.19.73.73,0,0,0-.5.16.64.64,0,0,0,.13,1,5.25,5.25,0,0,0,1,.41,9.49,9.49,0,0,1,1.11.44,2.11,2.11,0,0,1,.73.61,1.62,1.62,0,0,1,.31,1,2.05,2.05,0,0,1-.3,1.09,2.13,2.13,0,0,1-.89.78,3.07,3.07,0,0,1-1.37.29,3.57,3.57,0,0,1-1.38-.25,2.2,2.2,0,0,1-1-.74A2,2,0,0,1,33.09,18h1.82a.89.89,0,0,0,.27.59.84.84,0,0,0,.6.21.93.93,0,0,0,.6-.18.55.55,0,0,0,.22-.48.6.6,0,0,0-.17-.46Zm-4.52-4.63v4.78a2.28,2.28,0,0,1-.62,1.71,2.34,2.34,0,0,1-1.69.6,2.5,2.5,0,0,1-1.78-.63,2.37,2.37,0,0,1-.67-1.79h1.7a1,1,0,0,0,.18.66.63.63,0,0,0,.52.23.6.6,0,0,0,.48-.2.84.84,0,0,0,.17-.58V13.05Zm21.67,7H51.87L49,15.74v4.33H47.3v-7H49l2.86,4.35V13.05h1.71Z"/>
      </g>
    </g>
  </g>
</svg>
